<mxfile modified="2022-10-31T14:29:10.922Z" host="app.diagrams.net" agent="5.0 (Windows NT 10.0; Win64; x64) AppleWebKit/537.36 (KHTML, like Gecko) Chrome/106.0.0.0 Safari/537.36 Edg/106.0.1370.52" etag="G0DEgdHucx7SFfDSN1IN" version="20.5.1" type="github" pages="4">
  <diagram id="cqXZ0a_9sqHNQVog2M1R" name="Page-2">
    <mxGraphModel dx="1247" dy="677" grid="1" gridSize="10" guides="1" tooltips="1" connect="1" arrows="1" fold="1" page="1" pageScale="1" pageWidth="850" pageHeight="1100" math="0" shadow="0">
      <root>
        <mxCell id="0" />
        <mxCell id="1" parent="0" />
        <mxCell id="4I7H002opzyqajecqoH5-1" value="AWS Cloud" style="points=[[0,0],[0.25,0],[0.5,0],[0.75,0],[1,0],[1,0.25],[1,0.5],[1,0.75],[1,1],[0.75,1],[0.5,1],[0.25,1],[0,1],[0,0.75],[0,0.5],[0,0.25]];outlineConnect=0;gradientColor=none;html=1;whiteSpace=wrap;fontSize=12;fontStyle=0;shape=mxgraph.aws4.group;grIcon=mxgraph.aws4.group_aws_cloud_alt;strokeColor=#232F3E;fillColor=none;verticalAlign=top;align=left;spacingLeft=30;fontColor=#232F3E;dashed=0;labelBackgroundColor=#ffffff;container=1;pointerEvents=0;collapsible=0;recursiveResize=0;" parent="1" vertex="1">
          <mxGeometry x="230" y="130" width="600" height="430" as="geometry" />
        </mxCell>
        <mxCell id="bjvOWlqLd8jL90bXBFrE-24" style="edgeStyle=orthogonalEdgeStyle;rounded=0;orthogonalLoop=1;jettySize=auto;html=1;exitX=0.5;exitY=1;exitDx=0;exitDy=0;" parent="4I7H002opzyqajecqoH5-1" source="bjvOWlqLd8jL90bXBFrE-21" target="bjvOWlqLd8jL90bXBFrE-14" edge="1">
          <mxGeometry relative="1" as="geometry" />
        </mxCell>
        <mxCell id="bjvOWlqLd8jL90bXBFrE-21" value="" style="rounded=0;whiteSpace=wrap;html=1;fillStyle=solid;dashed=1;" parent="4I7H002opzyqajecqoH5-1" vertex="1">
          <mxGeometry x="240" y="50" width="340" height="270" as="geometry" />
        </mxCell>
        <mxCell id="bjvOWlqLd8jL90bXBFrE-18" style="edgeStyle=orthogonalEdgeStyle;rounded=0;orthogonalLoop=1;jettySize=auto;html=1;exitX=1;exitY=0.5;exitDx=0;exitDy=0;entryX=-0.017;entryY=0.325;entryDx=0;entryDy=0;entryPerimeter=0;" parent="4I7H002opzyqajecqoH5-1" source="bjvOWlqLd8jL90bXBFrE-3" target="bjvOWlqLd8jL90bXBFrE-8" edge="1">
          <mxGeometry relative="1" as="geometry" />
        </mxCell>
        <mxCell id="bjvOWlqLd8jL90bXBFrE-3" value="" style="shape=image;verticalLabelPosition=bottom;labelBackgroundColor=default;verticalAlign=top;aspect=fixed;imageAspect=0;image=data:image/jpeg,/9j/4AAQSkZJRgABAQAAAQABAAD/2wCEAAoHCA8VERUPEBUWGBEYFRoYGRoVGhgYGR0eGRkaGhofHBwcIS4lHh4rHxgYJjgoKy8xNUM1GiQ7QD0zPy40NzEBDAwMEA8QHxISHzQsISE/MTExNDQ9MTQ0NTQxNDY0NDYxNDE0NDQ0NDQ0NDQ0MTExNDQ0NDQ0MTQ0NDQxMTQxNP/AABEIAOIA3wMBIgACEQEDEQH/xAAbAAACAwEBAQAAAAAAAAAAAAAAAQUGBwQCA//EAEMQAAIBAgIHBAcFBAoDAQAAAAECAAMRBAUGEiExQWFxIlGBkQcTMkJygqEjUmKSsRSissEVFyQzU1TC0dLhFkPwc//EABkBAQEBAQEBAAAAAAAAAAAAAAABAgMEBf/EACcRAQACAgIBBAEEAwAAAAAAAAABAgMRITESEyJBUTNCYXGBMlKR/9oADAMBAAIRAxEAPwCCjihPotHHFCA44oQHHFCA4QhAcIo4BCEIDhFHAI4oQpwhCAQhCA4RRwCOKEBxxQkHLHFCVDjihAccUIDjihAccUIDhCEBwijgEIQgOEUcAjihCnCEIBCEIDhFHAI4oQOaEITSCOKEyHHFCA525blOJxBYYemz6ou1ioAvuuWIF9+zfPnl2BqV6q0KQuzHwA4sx4ADbNgy/C4bA4UKWCoti7vYazMQNZupsOQsOE55MnhxHZLGqtN1ZkdSrqSGDCxBG8ETzNZ0l0Xo4setQha9uyw2qw4B7bx3EbRzGyZjmeV4nDvqYhCh4HerfCw2H9e+0UyRb+TbkjihOgclMjyOvi3ZaVgqi7O1wovuGwG5O3Zyn0yDR3EYphqDVo37VRh2R36v3m5DxImmAYTL8L92mvi7sf4nNumzgBs5ZMmuI7NsqzjKq2Gq+prAXtdWW5Vh3gkeE4ZsOPwOFzDDKQQUYa1N13g7v+ip7uBGzL85yTEYV9WsvYJ7LrtVuh4Hkdv6xTJ5cT2I6EITqHPrhcPUqOtOkCzk2Cjef+uc6soyXE4ltWgpK3sXbYi9W/kLnlNNyLIsPgqbOSC+rd6r2GwbSBf2V/8AjwnO+SK/ybZbmGX16DhK6FHIuAbEEcipIPgZzTXs7yyjjsMNVgSRrUqg4Ej+E7iP5gTJcTQem5pVFIdTqsDwI/lzimTyj9yJfOEIToohCEBwijgcscUJpDhCEAnumjMwRASzEAAbSSTYADvvPF5pWgmjXq1GNxC/asPs1PuKRvPcxHkDzNud7xSNyJTRPIFwdEvUt69heoxIsoG3VB7hxPE8gLUXS/SI4qrqISMMh7A3ax3FyPMDuHUyX090l1y2CoN2VNqrDiR7g5A7+ezgb1jIMmq4qsKNPYo2u5Fwi957ydwHHoCRypX9d0d+j2lmIwtqZ+0ofcY2K/C3Dpu6b5oGB0ly7FLqFlBbYadcBSeVm2N4Eyo5toBiEGthmFUW2q1kbw26p+njKjicNUptqVUZG7nUqfI7xE1pfmO1a5X0Qy1zc0APgZ0HkrAfSesPotllLtCgmzbeoWcD85IEyKjiaiC1N3UfgZl/QxVazv7bs3xsW/WPSt15JpqubaY4GgurTIq1ALBaZGqOrDYB0ueUzfOc3r4qp6ys272UHsqPwjv7zv8ApPhgcBXrtq0KbOd3ZFwOrbl8SJeci0CUWfGnWPCmhIA+JxYk8hYczERTH/K9KnkOf18I5amdZCe0jHstzH3W5jxvNHyzSnAYhdRnVGIsUq2F+QJ7LeG3kJXs+0CYE1MEbj/Dc7R8LHf0bzlKxeFq0m1KyMjdzArfpfeOYiYrk5js7a1X0SyxzrGgov8AcZ0HkrAfSFDRTLKfaFBTb/ELOPJyRMjo4ionsO6/AzL+hhWru/tuzfGxb9Y9K32mmr5jpXgMONRWDsBYJRswHIkdlfO/KZ9n+kmIxRsx1aQNwgOzkWPvH6dwEjcFgq1VtSiju34ATbqdw8Zbst9H9ZkLYmoKbEbFQByPiN7eAv1iIpTme1c2hWkfqH/Z6x+wZthO5GPHkp49x298summjnr09fRH9oQbh76j3fiHDy7rZ1muXVcPWahVHaXcRuZTuYcj/uOEu+gmkmuBgq7dsC1Nj7wHuH8QG7vHTbL1176jPoS86d6N2LY2gNh21VHD8YHd97z75RZ2peLRuFOEITQIQhA5oRRzSCOKECe0LoYd8bTXEW1bEqG3M4tqqe/ibcSAONppWlj4oYSo2F/vOJF9YJt1ig4sB/MjaAJi4M1XQXSM4hDQrNfEILgne6btb4gbA9QeJnlzVncW+kllYmv6D4aguCptRsS41nPEvuYHoRYchzlI06yQYfECrTFqNW7ADcGHtDkNoI6kcJ2ejfNSldsI57FQFl5Oo2+ag/kE1k99Nwsu5dPa1OvUpYqgNVXYWpntKAbWN9j9ezJ/D6U5XXXVeogB3rXGoP3+yfAmVX0l5aFrJilGyoNRviUdk9Suz5JSZK462rExwmmyf0PlD9paeHIP3dQD92H9G5PS7TJhVtxfU/VpjeqO6AAl9Gf9pNNdxmmGW0Rqo+uRuWitx4NsT6ynZ1pviqwKUfsaZ2dk3qH5vd+XbzlVhLGKsLpccm08xFMBMSvrVHvCyuOvBvGx5mW3DaVZZXXVaoi33rXGqPEt2T4EzIoROGs/sabD/ROUVO0tPDG/FNQfww/ozKKfaanhltxfU/1THtUQAEz6M/cpprmK0ty2iuqjh7blorrDwIso85EYDTSviMXSoUaKikzWYMSX1bG7XGxbDbax3WvtmdzQPRplo1amLYbSfVr0Fi58Tqj5TJbHWtZk0kPSJh6BwnrXsKqsopniSxGsOY1QT8szJGYEFSQwIIK3uCDsItxvLHp3mhrYo0lP2dG6Dm3vnzsvy852+j7JRUqHF1BdKbWQHi++/wAoI8SO6ar7Me5Vesnau2GQ4pQKxXtgfS43AkWuN17zJNIKNBMVWTDkGkG7NjcDYCwB7gxYeEuenukLJ/Y6DWqML1GG9VO5R3EjaeVu/Zngkw1mPd9kCOKE7qcIQgcsJ5nqaQ4RRwCduU5gaGIp4hb3VgSBxXcw8VJE4oTMxvgbHpng1r4Coy2JRRWU/CLm3VdYeMyTA4o0qtOuu9HV9nHVIJHiLjxmxaPHXy6gG44dVPQLq/oJii7h0nDD1NfpIa/p5hhUy+ow2lCtRfAgE/lZpkc2LFnWyhmbecCW8fU3/WY5GDqYIOOT+jmi9TGU3qJUVAjavaUm5sDwPOTP9XFf/MJ+Rv8AedZyVidTK7UeOXf+rmv/AJhPyN/vKznuVPha/wCzuwY6qtdQQO1fgekVvW3ESI6Od+R5W2Jrrh0YKSrG7AkdkX3CWj+rmv8A46fkb/eLXrWdTIpEcu39XNf/ADCfkb/efPEaAVkRqhroQiM1tVtuqCe/lM+rX7NqbNgyQLhssRyPYw5qsOZU1G+pMx1jsPSbHpL2MtrAcKOr4EBf0Mxm51H2ksgeoxJdjdiSSe8naT5zYstpJg8AuuNlKkXe3FrFn82Jt4TIsAgatTQ7mqID0LAGarp1UIy6tbiUXwNRb/SM3M1r9kspxWIao7VXN2ZizHmTfZynyhCdlOEUcoI4oQrkhCE0j1CeZ6gOABOwAknYAN5PACKWv0fZMa2J/aHH2VEhtu4v7g8Pa8F75i1orG5GguBhMusTto4e3VlS31b9ZigBtYbTuE0j0mZqFppglPach35Kp7IPVhf5ecqeh2XGvjaSW7CH1j9EII821R4mccXtrNp+UhpOf2o5XVQ+7h/V+JUIPqRMbmmek3HhcMmHB7VR9Yj8Kbf4inkZmcuCON/aw1D0YrbCVD312+iU/wDuVLH6VZgK1VUxDhBUcKNVNgDmw9nutLt6Oktl6n71Rz+9q/ylJOh+aMWY0LXJPaenfab/AHpmvj528tI+H/lmZ/5hvy0/+Mjcfjq1Z/WV3LvYC5AGwbtwAnVmGQY2gutWoMqjew1XUdWUkDxkZO9Yr3GldOCxtWi4q0WKuAQGABNjv3giSf8A5Xmf+Yb8tP8A4yEkzo1kFTF1dUXWkti79w7l72P038jLRXuwsWimJzXF1NZ8Q64dD221U7R36i9nf3ngOokjpvpQKStg6BBrMLO28IrDd8RB8Ab906dIcc+Dw64XA0X1tWwZKbMlNeJLWILE3O3qeeWOxJJYktc3JuTe+299t7zjSkXny1whHdabFmP2+Vuy7S+F1hzPq9YDzmPTVtAMcKmCFM+1SY0yD3b18NU2+UzWeOIn6WWWUqhRldd6sGHUG4/SbDpJQGIy+qKfa1qYdbcdWzrbrqjzmVZ3l5oYmphyNiv2eanap/KR4gzQ/R9moq4b9nY/aUez1Q31T4bV+Ud8mXqLR8JLLgY5OaX5QcPiWCi1J7sncAT2l+UnyKyDnasxMbhRCEJQ4RRwOOOKE0HCEIHulTZ2VEF3ZgqgbyWNgB1JE2jAYejl+Bsx7NNS7sN7MfaI7yTsA6CUD0c5eKmM9awutFS3zN2V+mueqiTPpPzMgU8Ep9r7R+gJCDpcMflE82T33iqSo2Z4969Z8RU9pmvbgBuCjkAAPCadoFk37PhfXVBarVsxvs1VA7APdsJJ+K3CUbQzKBicWocXpU+2/cbHsqep+gaXP0i516qgMKh+0rA61t4TcfzHs9NaMk7mKVJUXSnNv2nFPWU/Zjsp8K3sfEkt80iYoTvEajUKsuUaY4nDYdcPSSmQpY6z6xPaYtuDDvnX/WHj7+xh/wAj/wDOVCEzOOs86Gr6LaWri3NCompW1SRY3RgN9r7jy27OO+VLTzJEw9cVKI1aVW51RuVltrAdwNwQOvC05NBUZsxoavu67NyXUYG/iQPGWv0ouPUUF941SR0CkH6ss468MkRX5T5ZtLRozpX+x0Woijrlqhe+vq2uqLb2T936yrwne1YtGpVouG9IyFrVcOyr3o4c+RVf1kxnGS4XH4cVqWr6xl1qdVRYnuDcSvAg7Rt3GZHNZ9HiOMAutuLuV6a1v4g08+SkU5rwkspdGUlWFmBIIO8EbCPOWHQfNxh8UFY2pVbI3cDfsN4EkdGJkXnrA4vEEbvX1LfnacE7zHlXU/KtK9IuT69NcYg7dMar24oTe/yk36Mx4Sj5Dmr4bELiFuVHZZR7yn2h12AjmBNI0MzcYrCmnVsaiDUcHbrAjsk99xcHmDM50iys4bFPQ26t9ZCeKt7PW21eqmcsc90skNN0my1cZgz6uzPqipSYcTa4APcwNvEHhMgmmejjMi+HbDMdtJhq/C9yB4MGHS0qGmeAFHHVFUWV7VF+e+t+8GjFPjaayQg4RRzuohCEDjjihNBxxQgaZ6K6Q9TiKnFqip4IgI/jMqundctmNe+5dRB0CKT9S3nLZ6K6oOHrpxFUN4MgA/gMqWnNErmNe+5ijjmCi/zBHhPNX8sp8rj6MMKFwtSrbtPVtf8ACii31ZvOUjSzGtVx2IcnYrlF5Kh1BbqQT8xl49GGLVsK9C/bp1CbfhcAg+YYeEpWmGVvQxlQMDq1HaojcCGbWI6qTY+B4iKfknfZ8oWI7oQnpVqFPRDK8RTWpRYqSouaLhhe224bWA6bJ8P6uKN/7+pq92qt/P8A6mcU6jK2ujFW71JB8xtnb/TONtb9oxFv/wBan/KcPTvHVhqWCy/L8tpmoW1SRYvUILtbbYADb0UTOdKM8bF1/WWK00GqineBxJ/EePQDba5iKlR3bXdmZjvLEsfM7Z5lrj8Z8pncmk9odhsJUxLU8Zq+rak2rrNq9rXTVswI7Vtb6y31/R5hGOtTq1VvwJVl8NgP1mZTow+Or0xalVqIO5HdB5KRLalpndZ0NGwno8wqsGq1KlQD3RZAettvkROjSPSihhaRoYYoawXVVUsVpgCwLW2Cw3L04TNa2Z4lxqvXrOp4NUdh5E2nIJj0pmd2nZo79/1jihOwsmgWMNPHogPZqBkbyLL46yjzMnvShhhahXG+7oedwGXys3nIXQHLXq4ta1j6ujdmPDWKkKo57b9BzEmvSfi1tQw49q7VDyFtVfO7flnCfyxpPlFejmsVxxXg9Jx5FWH6Hzkh6UKQFTDvxZain5ShH8Rkd6OqRbHa3BaTsfEqo/i+kkfSjUGvh14hahPzFAP4TE/lg+VFhCE7qcIo4HHCKOaBHFCBbPR1mYpYz1TmyVl1PmBun+perCWD0l5MXRcbTFzTGrUtv1L3Vuikm/Jr8JmqsQQQSCDcEbCCNxB4Ga9ohpGmMpeqq6v7Qq2dTazLu1gOIPEcCe4iebJE1tF4/tJZlkOb1MLXXEU9o9l1OwOp3jkdgIPeB0mr0auAzLD22OvEHsujeG1Tv2jYdu8Sm6V6E1KbGvg1LUd5pjayfCN7L9Rz3in4XFVKbipSdkcbmUkHmOnKatWuSPKs8quOb+jzEoS2FYVE4KxCuOV/Zbr2ekqmNy3E0bivSdLcWUhfBtx8DLXlfpExC2XE01qD7y9h+pFtUnoFlmwmnmWvbWZ6ZPCoh/VdYfWZ88le42nLJAY5spweU4wEquHqniaZXXHVlIYSEzL0dUGu2HqMh+6/bXoDsYdSTLGePnhds1jkvm2jWNw92q0yUHv0+2vUm11HxASHnaJieYDhFeT2UaJY6vZlTUQ+9Vuo8FtrHytzkm0RzIgoEiadl/o9wqWOId6rcQOwv0Ot+9JfVyrCbD+z0mHfqa58+0ZznPHxGzbKcDlGKrW9TRdweIUhfzmy/WWvKPR9UJD4twq/cpm7HkW3L4X6iT2L09y9PYL1D+BCB5vq/S8rGZ6f4pwVoKtFe/238yNUeR6zPlkt1Gk5XLMMywWX0BTUKth2Ka+0x7zxtfex+p2TKMzx9SvWavVPac8NygbAo5AT41Hd3LMWd3O8kszE7BzJl60U0KbWXE41bAbVpHeTwL8vw+fdLEVxxue16Svo/wAnNHDmvUFqlaxAO8IL6l+4m5bxHdKTphmIr42o4N0W1NT3hb3PixbwtLnpxpKKCHC0G/tDizEe4pG/kxG7u3918wEmKszM3n5SDjihO6nCEIHFHFCaHqEUcAn1w9d0ZalNirqbqymxBnyhA0/R3T2lUApY21N92uPYb4vuH6cxukzmujGAxY9aVAdhcVKJAJvxNrq3UgzGJ3ZbnGKw5vh6rIN5UG6nqrXUnna889sPO6To0tGY+jvFLc4d0qL3N9m/Tip63Er2L0fx1L+8oVQO9V11/Mlx9ZZcB6R662GIoo/4kJQ+R1gT5SfwnpBy9/b9ZT+NdYfuFv0k8sle42nLKQbG42MD0IP8jJ7LNL8woWAqmog92t2h+b2h52mm2y3Gr/6K+z8Jdf8AUp8pXc19HVFrthKhRvuPd16BvaXqdaPVrbi8G3Xk2nuEq2SuDRfvY3pn5vd+YAc50ZzofgsSPW0rU6jC4enYq1+LKNjdRY85mebZLisM1sRTKi9g47SN0YbL8jY8p9Mnz7F4U/YP2TvRtqHnbgeYsY9L9VJNNNyrRnAYNfXPqs6i5q1iNnMX7KdRt5mRucekDDpdMMpqt943VB095vIDnKBm2c4nEtrYhy1j2VGxV+FRs8d/OfbJ9HsXiTeinY4u/ZQePvfKDHpR/leTT65npRj69w9VlQ+5T7C9NnaI6kyGRbmwF2PAbSfDjNNyv0fYZbNiWaq33VuifQ6x8x0k5UxGW4JbXo0dnsqFDH5V2tHq1jikG2WYTRzH1PYw9S3e41B5va8sWXejyu1jiaqov3U7beZsAfzScxXpBwK7Ka1anNVCj98g/SQGP9IeJbZQppTHexLt4bAB4gx5ZLdRo5XLLsjwGCQ1FCqQO1VqsC3PtNsUchYSt6Q6eCxpYHadxqsNg+FTvPM7ORlHx+Y4iu2tiKjOeGsdg+FRsXwE5Za4ed2ncrp7eozMWYksSSSxJJJ3kk7zFFCdg44oQHHFCBxwijmgRxQgeoRRwCOKEBxxQge0YghlJDDaCDYjoRulmyfTfG0bK7eupjhUPa8H3/m1pV4TNqxbsbNk+kmCxi+quA7CzUqoFyONgdjDp4gSC0h0BVr1cCdRt5pk9k/CT7J5HZ0mcA8RvG0S56O6d1aQFPFhqtMDYwsag5G5AYcyb8zOE47U5p/xNJzR/QOjTtUxdqtTfqf+teoPtnrs5cZI53pdg8Lemv2lVdmpTtZbcGbcvTaeUpWkWmtevenh9alQ42NqjdSPZHIeJN7SqCIxWtzef6NLFm2mOOr3UP6pD7tK6nxf2j4WHKV7nxO+EJ2isV6U4QhNgjihMhxxQgOOKEBxxQgccJ5nqaDhFHAI4oQPUIo4BHFCA44oQHCEIHqE8z1AI4oQHHFCA4QhAI4oQHHFCZDjihA4Y4oTY9wnmepA4RRwCOKED1CKOARxQgOOKEBwhCB6hPM9QHCKOARxQgOEIQCOKEyHHFCBxQhCbQRiEJFeo4QgEIQgMQhCA4QhAcIQgAjEIQCEIQPUIQgOEIQCOEIBCEIBHCEyP//Z;" parent="4I7H002opzyqajecqoH5-1" vertex="1">
          <mxGeometry x="30" y="153" width="59.2" height="60" as="geometry" />
        </mxCell>
        <mxCell id="bjvOWlqLd8jL90bXBFrE-19" style="edgeStyle=orthogonalEdgeStyle;rounded=0;orthogonalLoop=1;jettySize=auto;html=1;entryX=0.5;entryY=0;entryDx=0;entryDy=0;entryPerimeter=0;" parent="4I7H002opzyqajecqoH5-1" source="bjvOWlqLd8jL90bXBFrE-8" target="bjvOWlqLd8jL90bXBFrE-10" edge="1">
          <mxGeometry relative="1" as="geometry">
            <Array as="points">
              <mxPoint x="171" y="130" />
              <mxPoint x="308" y="130" />
            </Array>
          </mxGeometry>
        </mxCell>
        <mxCell id="bjvOWlqLd8jL90bXBFrE-20" style="edgeStyle=orthogonalEdgeStyle;rounded=0;orthogonalLoop=1;jettySize=auto;html=1;entryX=0.5;entryY=0;entryDx=0;entryDy=0;entryPerimeter=0;" parent="4I7H002opzyqajecqoH5-1" source="bjvOWlqLd8jL90bXBFrE-8" target="bjvOWlqLd8jL90bXBFrE-11" edge="1">
          <mxGeometry relative="1" as="geometry">
            <Array as="points">
              <mxPoint x="171" y="130" />
              <mxPoint x="518" y="130" />
            </Array>
          </mxGeometry>
        </mxCell>
        <mxCell id="bjvOWlqLd8jL90bXBFrE-8" value="Application Load Balancer" style="sketch=0;outlineConnect=0;fontColor=#232F3E;gradientColor=none;strokeColor=#ffffff;fillColor=#232F3E;dashed=0;verticalLabelPosition=middle;verticalAlign=bottom;align=center;html=1;whiteSpace=wrap;fontSize=10;fontStyle=1;spacing=3;shape=mxgraph.aws4.productIcon;prIcon=mxgraph.aws4.application_load_balancer;" parent="4I7H002opzyqajecqoH5-1" vertex="1">
          <mxGeometry x="141" y="150" width="60" height="100" as="geometry" />
        </mxCell>
        <mxCell id="bjvOWlqLd8jL90bXBFrE-9" value="Amazon EKS" style="sketch=0;outlineConnect=0;fontColor=#232F3E;gradientColor=none;strokeColor=#ffffff;fillColor=#232F3E;dashed=0;verticalLabelPosition=middle;verticalAlign=bottom;align=center;html=1;whiteSpace=wrap;fontSize=10;fontStyle=1;spacing=3;shape=mxgraph.aws4.productIcon;prIcon=mxgraph.aws4.eks;" parent="4I7H002opzyqajecqoH5-1" vertex="1">
          <mxGeometry x="375" y="20" width="60" height="90" as="geometry" />
        </mxCell>
        <mxCell id="bjvOWlqLd8jL90bXBFrE-22" style="edgeStyle=orthogonalEdgeStyle;rounded=0;orthogonalLoop=1;jettySize=auto;html=1;exitX=0.5;exitY=1;exitDx=0;exitDy=0;exitPerimeter=0;entryX=0;entryY=0.79;entryDx=0;entryDy=0;entryPerimeter=0;" parent="4I7H002opzyqajecqoH5-1" source="bjvOWlqLd8jL90bXBFrE-10" target="bjvOWlqLd8jL90bXBFrE-13" edge="1">
          <mxGeometry relative="1" as="geometry" />
        </mxCell>
        <mxCell id="bjvOWlqLd8jL90bXBFrE-10" value="" style="outlineConnect=0;dashed=0;verticalLabelPosition=bottom;verticalAlign=top;align=center;html=1;shape=mxgraph.aws3.emr_cluster;fillColor=#F58534;gradientColor=none;" parent="4I7H002opzyqajecqoH5-1" vertex="1">
          <mxGeometry x="280" y="150" width="55.5" height="63" as="geometry" />
        </mxCell>
        <mxCell id="bjvOWlqLd8jL90bXBFrE-23" style="edgeStyle=orthogonalEdgeStyle;rounded=0;orthogonalLoop=1;jettySize=auto;html=1;exitX=0.5;exitY=1;exitDx=0;exitDy=0;exitPerimeter=0;entryX=1;entryY=0.79;entryDx=0;entryDy=0;entryPerimeter=0;" parent="4I7H002opzyqajecqoH5-1" source="bjvOWlqLd8jL90bXBFrE-11" target="bjvOWlqLd8jL90bXBFrE-13" edge="1">
          <mxGeometry relative="1" as="geometry" />
        </mxCell>
        <mxCell id="bjvOWlqLd8jL90bXBFrE-11" value="" style="outlineConnect=0;dashed=0;verticalLabelPosition=bottom;verticalAlign=top;align=center;html=1;shape=mxgraph.aws3.emr_cluster;fillColor=#F58534;gradientColor=none;" parent="4I7H002opzyqajecqoH5-1" vertex="1">
          <mxGeometry x="490" y="150" width="55.5" height="63" as="geometry" />
        </mxCell>
        <mxCell id="bjvOWlqLd8jL90bXBFrE-13" value="" style="outlineConnect=0;dashed=0;verticalLabelPosition=bottom;verticalAlign=top;align=center;html=1;shape=mxgraph.aws3.efs;fillColor=#E05243;gradientColor=none;" parent="4I7H002opzyqajecqoH5-1" vertex="1">
          <mxGeometry x="385" y="250" width="50" height="50" as="geometry" />
        </mxCell>
        <mxCell id="bjvOWlqLd8jL90bXBFrE-14" value="" style="outlineConnect=0;dashed=0;verticalLabelPosition=bottom;verticalAlign=top;align=center;html=1;shape=mxgraph.aws3.rds;fillColor=#2E73B8;gradientColor=none;" parent="4I7H002opzyqajecqoH5-1" vertex="1">
          <mxGeometry x="385" y="340" width="50" height="60" as="geometry" />
        </mxCell>
        <mxCell id="bjvOWlqLd8jL90bXBFrE-27" value="Route53" style="text;html=1;strokeColor=none;fillColor=none;align=center;verticalAlign=middle;whiteSpace=wrap;rounded=0;dashed=1;fillStyle=solid;fontStyle=1;fontFamily=Helvetica;" parent="4I7H002opzyqajecqoH5-1" vertex="1">
          <mxGeometry x="29.2" y="213" width="60" height="30" as="geometry" />
        </mxCell>
        <mxCell id="bjvOWlqLd8jL90bXBFrE-26" value="Node" style="text;html=1;strokeColor=none;fillColor=none;align=center;verticalAlign=middle;whiteSpace=wrap;rounded=0;dashed=1;fillStyle=solid;fontStyle=1" parent="4I7H002opzyqajecqoH5-1" vertex="1">
          <mxGeometry x="330" y="170" width="60" height="30" as="geometry" />
        </mxCell>
        <mxCell id="bjvOWlqLd8jL90bXBFrE-28" value="Node" style="text;html=1;strokeColor=none;fillColor=none;align=center;verticalAlign=middle;whiteSpace=wrap;rounded=0;dashed=1;fillStyle=solid;fontStyle=1" parent="4I7H002opzyqajecqoH5-1" vertex="1">
          <mxGeometry x="435" y="170" width="60" height="30" as="geometry" />
        </mxCell>
        <mxCell id="bjvOWlqLd8jL90bXBFrE-29" value="EFS" style="text;html=1;strokeColor=none;fillColor=none;align=center;verticalAlign=middle;whiteSpace=wrap;rounded=0;dashed=1;fillStyle=solid;fontStyle=1" parent="4I7H002opzyqajecqoH5-1" vertex="1">
          <mxGeometry x="380" y="293" width="60" height="30" as="geometry" />
        </mxCell>
        <mxCell id="bjvOWlqLd8jL90bXBFrE-30" value="&lt;span style=&quot;font-family: Roboto, &amp;quot;Helvetica Neue&amp;quot;, Helvetica, Arial, sans-serif; text-align: start; background-color: rgb(240, 240, 240);&quot;&gt;&lt;font style=&quot;font-size: 12px;&quot;&gt;RDS postgres-12 db.m5.large&lt;/font&gt;&lt;/span&gt;" style="text;html=1;strokeColor=none;fillColor=none;align=center;verticalAlign=middle;whiteSpace=wrap;rounded=0;dashed=1;fillStyle=solid;fontStyle=1" parent="4I7H002opzyqajecqoH5-1" vertex="1">
          <mxGeometry x="335.5" y="400" width="153" height="30" as="geometry" />
        </mxCell>
        <mxCell id="bjvOWlqLd8jL90bXBFrE-31" value="" style="shape=image;verticalLabelPosition=bottom;labelBackgroundColor=default;verticalAlign=top;aspect=fixed;imageAspect=0;image=https://upload.wikimedia.org/wikipedia/commons/thumb/3/38/Prometheus_software_logo.svg/2066px-Prometheus_software_logo.svg.png;" parent="4I7H002opzyqajecqoH5-1" vertex="1">
          <mxGeometry x="448.11" y="30" width="40.39" height="40" as="geometry" />
        </mxCell>
        <mxCell id="bjvOWlqLd8jL90bXBFrE-32" value="" style="shape=image;verticalLabelPosition=bottom;labelBackgroundColor=default;verticalAlign=top;aspect=fixed;imageAspect=0;image=https://miro.medium.com/max/1200/1*YcNHxdrbPlV-lWjN_0Ek3g.png;" parent="4I7H002opzyqajecqoH5-1" vertex="1">
          <mxGeometry x="555.81" y="35" width="44.19" height="30" as="geometry" />
        </mxCell>
        <mxCell id="bjvOWlqLd8jL90bXBFrE-33" value="&lt;div style=&quot;text-align: start;&quot;&gt;&lt;span style=&quot;background-color: initial;&quot;&gt;&lt;font face=&quot;Roboto, Helvetica Neue, Helvetica, Arial, sans-serif&quot;&gt;Prometheus&lt;/font&gt;&lt;/span&gt;&lt;/div&gt;" style="text;html=1;strokeColor=none;fillColor=none;align=center;verticalAlign=middle;whiteSpace=wrap;rounded=0;dashed=1;fillStyle=solid;fontStyle=1" parent="4I7H002opzyqajecqoH5-1" vertex="1">
          <mxGeometry x="429" y="60" width="80" height="30" as="geometry" />
        </mxCell>
        <mxCell id="bjvOWlqLd8jL90bXBFrE-15" style="edgeStyle=orthogonalEdgeStyle;rounded=0;orthogonalLoop=1;jettySize=auto;html=1;" parent="1" source="bjvOWlqLd8jL90bXBFrE-1" target="bjvOWlqLd8jL90bXBFrE-3" edge="1">
          <mxGeometry relative="1" as="geometry" />
        </mxCell>
        <mxCell id="bjvOWlqLd8jL90bXBFrE-1" value="Users" style="sketch=0;outlineConnect=0;fontColor=#232F3E;gradientColor=none;strokeColor=#232F3E;fillColor=#ffffff;dashed=0;verticalLabelPosition=bottom;verticalAlign=top;align=center;html=1;fontSize=12;fontStyle=0;aspect=fixed;shape=mxgraph.aws4.resourceIcon;resIcon=mxgraph.aws4.users;" parent="1" vertex="1">
          <mxGeometry x="80" y="283" width="60" height="60" as="geometry" />
        </mxCell>
      </root>
    </mxGraphModel>
  </diagram>
  <diagram id="M1jh152olG-zaGu958Yy" name="Page-3">
    <mxGraphModel dx="1182" dy="836" grid="1" gridSize="10" guides="1" tooltips="1" connect="1" arrows="1" fold="1" page="0" pageScale="1" pageWidth="850" pageHeight="1100" math="0" shadow="0">
      <root>
        <mxCell id="0" />
        <mxCell id="1" parent="0" />
        <mxCell id="knfAprby-4VJT82eMWxU-6" value="" style="rounded=0;whiteSpace=wrap;html=1;fillStyle=solid;fontFamily=Helvetica;fontSize=12;" parent="1" vertex="1">
          <mxGeometry x="-270" y="-360" width="1290" height="970" as="geometry" />
        </mxCell>
        <mxCell id="knfAprby-4VJT82eMWxU-3" value="" style="edgeStyle=orthogonalEdgeStyle;rounded=0;orthogonalLoop=1;jettySize=auto;html=1;fontFamily=Helvetica;fontSize=12;" parent="1" source="VPNnSf4NWTNdyChUn4aS-1" target="TvaEEhQU5virlxVDcdbK-1" edge="1">
          <mxGeometry relative="1" as="geometry" />
        </mxCell>
        <mxCell id="knfAprby-4VJT82eMWxU-7" value="" style="rounded=0;whiteSpace=wrap;html=1;fillStyle=solid;fontFamily=Helvetica;fontSize=12;" parent="1" vertex="1">
          <mxGeometry x="-259" y="-336" width="1230" height="890" as="geometry" />
        </mxCell>
        <mxCell id="VPNnSf4NWTNdyChUn4aS-1" value="Users" style="sketch=0;outlineConnect=0;fontColor=#232F3E;gradientColor=none;strokeColor=#232F3E;fillColor=#ffffff;dashed=0;verticalLabelPosition=bottom;verticalAlign=top;align=center;html=1;fontSize=12;fontStyle=0;aspect=fixed;shape=mxgraph.aws4.resourceIcon;resIcon=mxgraph.aws4.users;" parent="1" vertex="1">
          <mxGeometry x="320" y="770" width="60" height="60" as="geometry" />
        </mxCell>
        <mxCell id="knfAprby-4VJT82eMWxU-4" value="" style="edgeStyle=orthogonalEdgeStyle;rounded=0;orthogonalLoop=1;jettySize=auto;html=1;fontFamily=Helvetica;fontSize=12;" parent="1" source="TvaEEhQU5virlxVDcdbK-1" target="TvaEEhQU5virlxVDcdbK-2" edge="1">
          <mxGeometry relative="1" as="geometry" />
        </mxCell>
        <mxCell id="TvaEEhQU5virlxVDcdbK-1" value="" style="shape=image;verticalLabelPosition=bottom;labelBackgroundColor=default;verticalAlign=top;aspect=fixed;imageAspect=0;image=data:image/jpeg,/9j/4AAQSkZJRgABAQAAAQABAAD/2wCEAAoHCA8VERUPEBUWGBEYFRoYGRoVGhgYGR0eGRkaGhofHBwcIS4lHh4rHxgYJjgoKy8xNUM1GiQ7QD0zPy40NzEBDAwMEA8QHxISHzQsISE/MTExNDQ9MTQ0NTQxNDY0NDYxNDE0NDQ0NDQ0NDQ0MTExNDQ0NDQ0MTQ0NDQxMTQxNP/AABEIAOIA3wMBIgACEQEDEQH/xAAbAAACAwEBAQAAAAAAAAAAAAAAAQUGBwQCA//EAEMQAAIBAgIHBAcFBAoDAQAAAAECAAMRBAUGEiExQWFxIlGBkQcTMkJygqEjUmKSsRSissEVFyQzU1TC0dLhFkPwc//EABkBAQEBAQEBAAAAAAAAAAAAAAABAgMEBf/EACcRAQACAgIBBAEEAwAAAAAAAAABAgMRITESEyJBUTNCYXGBMlKR/9oADAMBAAIRAxEAPwCCjihPotHHFCA44oQHHFCA4QhAcIo4BCEIDhFHAI4oQpwhCAQhCA4RRwCOKEBxxQkHLHFCVDjihAccUIDjihAccUIDhCEBwijgEIQgOEUcAjihCnCEIBCEIDhFHAI4oQOaEITSCOKEyHHFCA525blOJxBYYemz6ou1ioAvuuWIF9+zfPnl2BqV6q0KQuzHwA4sx4ADbNgy/C4bA4UKWCoti7vYazMQNZupsOQsOE55MnhxHZLGqtN1ZkdSrqSGDCxBG8ETzNZ0l0Xo4setQha9uyw2qw4B7bx3EbRzGyZjmeV4nDvqYhCh4HerfCw2H9e+0UyRb+TbkjihOgclMjyOvi3ZaVgqi7O1wovuGwG5O3Zyn0yDR3EYphqDVo37VRh2R36v3m5DxImmAYTL8L92mvi7sf4nNumzgBs5ZMmuI7NsqzjKq2Gq+prAXtdWW5Vh3gkeE4ZsOPwOFzDDKQQUYa1N13g7v+ip7uBGzL85yTEYV9WsvYJ7LrtVuh4Hkdv6xTJ5cT2I6EITqHPrhcPUqOtOkCzk2Cjef+uc6soyXE4ltWgpK3sXbYi9W/kLnlNNyLIsPgqbOSC+rd6r2GwbSBf2V/8AjwnO+SK/ybZbmGX16DhK6FHIuAbEEcipIPgZzTXs7yyjjsMNVgSRrUqg4Ej+E7iP5gTJcTQem5pVFIdTqsDwI/lzimTyj9yJfOEIToohCEBwijgcscUJpDhCEAnumjMwRASzEAAbSSTYADvvPF5pWgmjXq1GNxC/asPs1PuKRvPcxHkDzNud7xSNyJTRPIFwdEvUt69heoxIsoG3VB7hxPE8gLUXS/SI4qrqISMMh7A3ax3FyPMDuHUyX090l1y2CoN2VNqrDiR7g5A7+ezgb1jIMmq4qsKNPYo2u5Fwi957ydwHHoCRypX9d0d+j2lmIwtqZ+0ofcY2K/C3Dpu6b5oGB0ly7FLqFlBbYadcBSeVm2N4Eyo5toBiEGthmFUW2q1kbw26p+njKjicNUptqVUZG7nUqfI7xE1pfmO1a5X0Qy1zc0APgZ0HkrAfSesPotllLtCgmzbeoWcD85IEyKjiaiC1N3UfgZl/QxVazv7bs3xsW/WPSt15JpqubaY4GgurTIq1ALBaZGqOrDYB0ueUzfOc3r4qp6ys272UHsqPwjv7zv8ApPhgcBXrtq0KbOd3ZFwOrbl8SJeci0CUWfGnWPCmhIA+JxYk8hYczERTH/K9KnkOf18I5amdZCe0jHstzH3W5jxvNHyzSnAYhdRnVGIsUq2F+QJ7LeG3kJXs+0CYE1MEbj/Dc7R8LHf0bzlKxeFq0m1KyMjdzArfpfeOYiYrk5js7a1X0SyxzrGgov8AcZ0HkrAfSFDRTLKfaFBTb/ELOPJyRMjo4ionsO6/AzL+hhWru/tuzfGxb9Y9K32mmr5jpXgMONRWDsBYJRswHIkdlfO/KZ9n+kmIxRsx1aQNwgOzkWPvH6dwEjcFgq1VtSiju34ATbqdw8Zbst9H9ZkLYmoKbEbFQByPiN7eAv1iIpTme1c2hWkfqH/Z6x+wZthO5GPHkp49x298summjnr09fRH9oQbh76j3fiHDy7rZ1muXVcPWahVHaXcRuZTuYcj/uOEu+gmkmuBgq7dsC1Nj7wHuH8QG7vHTbL1176jPoS86d6N2LY2gNh21VHD8YHd97z75RZ2peLRuFOEITQIQhA5oRRzSCOKECe0LoYd8bTXEW1bEqG3M4tqqe/ibcSAONppWlj4oYSo2F/vOJF9YJt1ig4sB/MjaAJi4M1XQXSM4hDQrNfEILgne6btb4gbA9QeJnlzVncW+kllYmv6D4aguCptRsS41nPEvuYHoRYchzlI06yQYfECrTFqNW7ADcGHtDkNoI6kcJ2ejfNSldsI57FQFl5Oo2+ag/kE1k99Nwsu5dPa1OvUpYqgNVXYWpntKAbWN9j9ezJ/D6U5XXXVeogB3rXGoP3+yfAmVX0l5aFrJilGyoNRviUdk9Suz5JSZK462rExwmmyf0PlD9paeHIP3dQD92H9G5PS7TJhVtxfU/VpjeqO6AAl9Gf9pNNdxmmGW0Rqo+uRuWitx4NsT6ynZ1pviqwKUfsaZ2dk3qH5vd+XbzlVhLGKsLpccm08xFMBMSvrVHvCyuOvBvGx5mW3DaVZZXXVaoi33rXGqPEt2T4EzIoROGs/sabD/ROUVO0tPDG/FNQfww/ozKKfaanhltxfU/1THtUQAEz6M/cpprmK0ty2iuqjh7blorrDwIso85EYDTSviMXSoUaKikzWYMSX1bG7XGxbDbax3WvtmdzQPRplo1amLYbSfVr0Fi58Tqj5TJbHWtZk0kPSJh6BwnrXsKqsopniSxGsOY1QT8szJGYEFSQwIIK3uCDsItxvLHp3mhrYo0lP2dG6Dm3vnzsvy852+j7JRUqHF1BdKbWQHi++/wAoI8SO6ar7Me5Vesnau2GQ4pQKxXtgfS43AkWuN17zJNIKNBMVWTDkGkG7NjcDYCwB7gxYeEuenukLJ/Y6DWqML1GG9VO5R3EjaeVu/Zngkw1mPd9kCOKE7qcIQgcsJ5nqaQ4RRwCduU5gaGIp4hb3VgSBxXcw8VJE4oTMxvgbHpng1r4Coy2JRRWU/CLm3VdYeMyTA4o0qtOuu9HV9nHVIJHiLjxmxaPHXy6gG44dVPQLq/oJii7h0nDD1NfpIa/p5hhUy+ow2lCtRfAgE/lZpkc2LFnWyhmbecCW8fU3/WY5GDqYIOOT+jmi9TGU3qJUVAjavaUm5sDwPOTP9XFf/MJ+Rv8AedZyVidTK7UeOXf+rmv/AJhPyN/vKznuVPha/wCzuwY6qtdQQO1fgekVvW3ESI6Od+R5W2Jrrh0YKSrG7AkdkX3CWj+rmv8A46fkb/eLXrWdTIpEcu39XNf/ADCfkb/efPEaAVkRqhroQiM1tVtuqCe/lM+rX7NqbNgyQLhssRyPYw5qsOZU1G+pMx1jsPSbHpL2MtrAcKOr4EBf0Mxm51H2ksgeoxJdjdiSSe8naT5zYstpJg8AuuNlKkXe3FrFn82Jt4TIsAgatTQ7mqID0LAGarp1UIy6tbiUXwNRb/SM3M1r9kspxWIao7VXN2ZizHmTfZynyhCdlOEUcoI4oQrkhCE0j1CeZ6gOABOwAknYAN5PACKWv0fZMa2J/aHH2VEhtu4v7g8Pa8F75i1orG5GguBhMusTto4e3VlS31b9ZigBtYbTuE0j0mZqFppglPach35Kp7IPVhf5ecqeh2XGvjaSW7CH1j9EII821R4mccXtrNp+UhpOf2o5XVQ+7h/V+JUIPqRMbmmek3HhcMmHB7VR9Yj8Kbf4inkZmcuCON/aw1D0YrbCVD312+iU/wDuVLH6VZgK1VUxDhBUcKNVNgDmw9nutLt6Oktl6n71Rz+9q/ylJOh+aMWY0LXJPaenfab/AHpmvj528tI+H/lmZ/5hvy0/+Mjcfjq1Z/WV3LvYC5AGwbtwAnVmGQY2gutWoMqjew1XUdWUkDxkZO9Yr3GldOCxtWi4q0WKuAQGABNjv3giSf8A5Xmf+Yb8tP8A4yEkzo1kFTF1dUXWkti79w7l72P038jLRXuwsWimJzXF1NZ8Q64dD221U7R36i9nf3ngOokjpvpQKStg6BBrMLO28IrDd8RB8Ab906dIcc+Dw64XA0X1tWwZKbMlNeJLWILE3O3qeeWOxJJYktc3JuTe+299t7zjSkXny1whHdabFmP2+Vuy7S+F1hzPq9YDzmPTVtAMcKmCFM+1SY0yD3b18NU2+UzWeOIn6WWWUqhRldd6sGHUG4/SbDpJQGIy+qKfa1qYdbcdWzrbrqjzmVZ3l5oYmphyNiv2eanap/KR4gzQ/R9moq4b9nY/aUez1Q31T4bV+Ud8mXqLR8JLLgY5OaX5QcPiWCi1J7sncAT2l+UnyKyDnasxMbhRCEJQ4RRwOOOKE0HCEIHulTZ2VEF3ZgqgbyWNgB1JE2jAYejl+Bsx7NNS7sN7MfaI7yTsA6CUD0c5eKmM9awutFS3zN2V+mueqiTPpPzMgU8Ep9r7R+gJCDpcMflE82T33iqSo2Z4969Z8RU9pmvbgBuCjkAAPCadoFk37PhfXVBarVsxvs1VA7APdsJJ+K3CUbQzKBicWocXpU+2/cbHsqep+gaXP0i516qgMKh+0rA61t4TcfzHs9NaMk7mKVJUXSnNv2nFPWU/Zjsp8K3sfEkt80iYoTvEajUKsuUaY4nDYdcPSSmQpY6z6xPaYtuDDvnX/WHj7+xh/wAj/wDOVCEzOOs86Gr6LaWri3NCompW1SRY3RgN9r7jy27OO+VLTzJEw9cVKI1aVW51RuVltrAdwNwQOvC05NBUZsxoavu67NyXUYG/iQPGWv0ouPUUF941SR0CkH6ss468MkRX5T5ZtLRozpX+x0Woijrlqhe+vq2uqLb2T936yrwne1YtGpVouG9IyFrVcOyr3o4c+RVf1kxnGS4XH4cVqWr6xl1qdVRYnuDcSvAg7Rt3GZHNZ9HiOMAutuLuV6a1v4g08+SkU5rwkspdGUlWFmBIIO8EbCPOWHQfNxh8UFY2pVbI3cDfsN4EkdGJkXnrA4vEEbvX1LfnacE7zHlXU/KtK9IuT69NcYg7dMar24oTe/yk36Mx4Sj5Dmr4bELiFuVHZZR7yn2h12AjmBNI0MzcYrCmnVsaiDUcHbrAjsk99xcHmDM50iys4bFPQ26t9ZCeKt7PW21eqmcsc90skNN0my1cZgz6uzPqipSYcTa4APcwNvEHhMgmmejjMi+HbDMdtJhq/C9yB4MGHS0qGmeAFHHVFUWV7VF+e+t+8GjFPjaayQg4RRzuohCEDjjihNBxxQgaZ6K6Q9TiKnFqip4IgI/jMqundctmNe+5dRB0CKT9S3nLZ6K6oOHrpxFUN4MgA/gMqWnNErmNe+5ijjmCi/zBHhPNX8sp8rj6MMKFwtSrbtPVtf8ACii31ZvOUjSzGtVx2IcnYrlF5Kh1BbqQT8xl49GGLVsK9C/bp1CbfhcAg+YYeEpWmGVvQxlQMDq1HaojcCGbWI6qTY+B4iKfknfZ8oWI7oQnpVqFPRDK8RTWpRYqSouaLhhe224bWA6bJ8P6uKN/7+pq92qt/P8A6mcU6jK2ujFW71JB8xtnb/TONtb9oxFv/wBan/KcPTvHVhqWCy/L8tpmoW1SRYvUILtbbYADb0UTOdKM8bF1/WWK00GqineBxJ/EePQDba5iKlR3bXdmZjvLEsfM7Z5lrj8Z8pncmk9odhsJUxLU8Zq+rak2rrNq9rXTVswI7Vtb6y31/R5hGOtTq1VvwJVl8NgP1mZTow+Or0xalVqIO5HdB5KRLalpndZ0NGwno8wqsGq1KlQD3RZAettvkROjSPSihhaRoYYoawXVVUsVpgCwLW2Cw3L04TNa2Z4lxqvXrOp4NUdh5E2nIJj0pmd2nZo79/1jihOwsmgWMNPHogPZqBkbyLL46yjzMnvShhhahXG+7oedwGXys3nIXQHLXq4ta1j6ujdmPDWKkKo57b9BzEmvSfi1tQw49q7VDyFtVfO7flnCfyxpPlFejmsVxxXg9Jx5FWH6Hzkh6UKQFTDvxZain5ShH8Rkd6OqRbHa3BaTsfEqo/i+kkfSjUGvh14hahPzFAP4TE/lg+VFhCE7qcIo4HHCKOaBHFCBbPR1mYpYz1TmyVl1PmBun+perCWD0l5MXRcbTFzTGrUtv1L3Vuikm/Jr8JmqsQQQSCDcEbCCNxB4Ga9ohpGmMpeqq6v7Qq2dTazLu1gOIPEcCe4iebJE1tF4/tJZlkOb1MLXXEU9o9l1OwOp3jkdgIPeB0mr0auAzLD22OvEHsujeG1Tv2jYdu8Sm6V6E1KbGvg1LUd5pjayfCN7L9Rz3in4XFVKbipSdkcbmUkHmOnKatWuSPKs8quOb+jzEoS2FYVE4KxCuOV/Zbr2ekqmNy3E0bivSdLcWUhfBtx8DLXlfpExC2XE01qD7y9h+pFtUnoFlmwmnmWvbWZ6ZPCoh/VdYfWZ88le42nLJAY5spweU4wEquHqniaZXXHVlIYSEzL0dUGu2HqMh+6/bXoDsYdSTLGePnhds1jkvm2jWNw92q0yUHv0+2vUm11HxASHnaJieYDhFeT2UaJY6vZlTUQ+9Vuo8FtrHytzkm0RzIgoEiadl/o9wqWOId6rcQOwv0Ot+9JfVyrCbD+z0mHfqa58+0ZznPHxGzbKcDlGKrW9TRdweIUhfzmy/WWvKPR9UJD4twq/cpm7HkW3L4X6iT2L09y9PYL1D+BCB5vq/S8rGZ6f4pwVoKtFe/238yNUeR6zPlkt1Gk5XLMMywWX0BTUKth2Ka+0x7zxtfex+p2TKMzx9SvWavVPac8NygbAo5AT41Hd3LMWd3O8kszE7BzJl60U0KbWXE41bAbVpHeTwL8vw+fdLEVxxue16Svo/wAnNHDmvUFqlaxAO8IL6l+4m5bxHdKTphmIr42o4N0W1NT3hb3PixbwtLnpxpKKCHC0G/tDizEe4pG/kxG7u3918wEmKszM3n5SDjihO6nCEIHFHFCaHqEUcAn1w9d0ZalNirqbqymxBnyhA0/R3T2lUApY21N92uPYb4vuH6cxukzmujGAxY9aVAdhcVKJAJvxNrq3UgzGJ3ZbnGKw5vh6rIN5UG6nqrXUnna889sPO6To0tGY+jvFLc4d0qL3N9m/Tip63Er2L0fx1L+8oVQO9V11/Mlx9ZZcB6R662GIoo/4kJQ+R1gT5SfwnpBy9/b9ZT+NdYfuFv0k8sle42nLKQbG42MD0IP8jJ7LNL8woWAqmog92t2h+b2h52mm2y3Gr/6K+z8Jdf8AUp8pXc19HVFrthKhRvuPd16BvaXqdaPVrbi8G3Xk2nuEq2SuDRfvY3pn5vd+YAc50ZzofgsSPW0rU6jC4enYq1+LKNjdRY85mebZLisM1sRTKi9g47SN0YbL8jY8p9Mnz7F4U/YP2TvRtqHnbgeYsY9L9VJNNNyrRnAYNfXPqs6i5q1iNnMX7KdRt5mRucekDDpdMMpqt943VB095vIDnKBm2c4nEtrYhy1j2VGxV+FRs8d/OfbJ9HsXiTeinY4u/ZQePvfKDHpR/leTT65npRj69w9VlQ+5T7C9NnaI6kyGRbmwF2PAbSfDjNNyv0fYZbNiWaq33VuifQ6x8x0k5UxGW4JbXo0dnsqFDH5V2tHq1jikG2WYTRzH1PYw9S3e41B5va8sWXejyu1jiaqov3U7beZsAfzScxXpBwK7Ka1anNVCj98g/SQGP9IeJbZQppTHexLt4bAB4gx5ZLdRo5XLLsjwGCQ1FCqQO1VqsC3PtNsUchYSt6Q6eCxpYHadxqsNg+FTvPM7ORlHx+Y4iu2tiKjOeGsdg+FRsXwE5Za4ed2ncrp7eozMWYksSSSxJJJ3kk7zFFCdg44oQHHFCBxwijmgRxQgeoRRwCOKEBxxQge0YghlJDDaCDYjoRulmyfTfG0bK7eupjhUPa8H3/m1pV4TNqxbsbNk+kmCxi+quA7CzUqoFyONgdjDp4gSC0h0BVr1cCdRt5pk9k/CT7J5HZ0mcA8RvG0S56O6d1aQFPFhqtMDYwsag5G5AYcyb8zOE47U5p/xNJzR/QOjTtUxdqtTfqf+teoPtnrs5cZI53pdg8Lemv2lVdmpTtZbcGbcvTaeUpWkWmtevenh9alQ42NqjdSPZHIeJN7SqCIxWtzef6NLFm2mOOr3UP6pD7tK6nxf2j4WHKV7nxO+EJ2isV6U4QhNgjihMhxxQgOOKEBxxQgccJ5nqaDhFHAI4oQPUIo4BHFCA44oQHCEIHqE8z1AI4oQHHFCA4QhAI4oQHHFCZDjihA4Y4oTY9wnmepA4RRwCOKED1CKOARxQgOOKEBwhCB6hPM9QHCKOARxQgOEIQCOKEyHHFCBxQhCbQRiEJFeo4QgEIQgMQhCA4QhAcIQgAjEIQCEIQPUIQgOEIQCOEIBCEIBHCEyP//Z;" parent="1" vertex="1">
          <mxGeometry x="320.8" y="660" width="59.2" height="60" as="geometry" />
        </mxCell>
        <mxCell id="knfAprby-4VJT82eMWxU-5" value="" style="edgeStyle=orthogonalEdgeStyle;rounded=0;orthogonalLoop=1;jettySize=auto;html=1;fontFamily=Helvetica;fontSize=12;" parent="1" source="TvaEEhQU5virlxVDcdbK-2" target="TvaEEhQU5virlxVDcdbK-3" edge="1">
          <mxGeometry relative="1" as="geometry" />
        </mxCell>
        <mxCell id="TvaEEhQU5virlxVDcdbK-2" value="" style="outlineConnect=0;dashed=0;verticalLabelPosition=bottom;verticalAlign=top;align=center;html=1;shape=mxgraph.aws3.internet_gateway;fillColor=#F58534;gradientColor=none;fillStyle=solid;fontFamily=Helvetica;fontSize=12;" parent="1" vertex="1">
          <mxGeometry x="317" y="510" width="69" height="72" as="geometry" />
        </mxCell>
        <mxCell id="knfAprby-4VJT82eMWxU-42" style="edgeStyle=orthogonalEdgeStyle;rounded=0;orthogonalLoop=1;jettySize=auto;html=1;exitX=0;exitY=0.5;exitDx=0;exitDy=0;exitPerimeter=0;fontFamily=Helvetica;fontSize=17;" parent="1" source="TvaEEhQU5virlxVDcdbK-3" target="knfAprby-4VJT82eMWxU-37" edge="1">
          <mxGeometry relative="1" as="geometry" />
        </mxCell>
        <mxCell id="knfAprby-4VJT82eMWxU-43" style="edgeStyle=orthogonalEdgeStyle;rounded=0;orthogonalLoop=1;jettySize=auto;html=1;exitX=1;exitY=0.5;exitDx=0;exitDy=0;exitPerimeter=0;entryX=0;entryY=0.5;entryDx=0;entryDy=0;fontFamily=Helvetica;fontSize=17;" parent="1" source="TvaEEhQU5virlxVDcdbK-3" target="knfAprby-4VJT82eMWxU-40" edge="1">
          <mxGeometry relative="1" as="geometry" />
        </mxCell>
        <mxCell id="TvaEEhQU5virlxVDcdbK-3" value="" style="outlineConnect=0;dashed=0;verticalLabelPosition=bottom;verticalAlign=top;align=center;html=1;shape=mxgraph.aws3.router;fillColor=#F58534;gradientColor=none;fillStyle=solid;fontFamily=Helvetica;fontSize=12;" parent="1" vertex="1">
          <mxGeometry x="317" y="393" width="69" height="72" as="geometry" />
        </mxCell>
        <mxCell id="knfAprby-4VJT82eMWxU-47" style="edgeStyle=orthogonalEdgeStyle;rounded=0;orthogonalLoop=1;jettySize=auto;html=1;exitX=0.5;exitY=0;exitDx=0;exitDy=0;exitPerimeter=0;fontFamily=Helvetica;fontSize=17;" parent="1" source="knfAprby-4VJT82eMWxU-2" target="knfAprby-4VJT82eMWxU-9" edge="1">
          <mxGeometry relative="1" as="geometry" />
        </mxCell>
        <mxCell id="knfAprby-4VJT82eMWxU-48" style="edgeStyle=orthogonalEdgeStyle;rounded=0;orthogonalLoop=1;jettySize=auto;html=1;exitX=0.5;exitY=0;exitDx=0;exitDy=0;exitPerimeter=0;fontFamily=Helvetica;fontSize=17;" parent="1" source="knfAprby-4VJT82eMWxU-2" target="knfAprby-4VJT82eMWxU-10" edge="1">
          <mxGeometry relative="1" as="geometry" />
        </mxCell>
        <mxCell id="MJIgwGlWmnjRi8OTkw5F-20" style="edgeStyle=orthogonalEdgeStyle;rounded=0;orthogonalLoop=1;jettySize=auto;html=1;exitX=0;exitY=0.5;exitDx=0;exitDy=0;exitPerimeter=0;entryX=0.5;entryY=1;entryDx=0;entryDy=0;fontFamily=Helvetica;fontSize=15;" parent="1" edge="1">
          <mxGeometry relative="1" as="geometry">
            <mxPoint x="318.79999999999995" y="320" as="sourcePoint" />
            <mxPoint x="90" y="189" as="targetPoint" />
            <Array as="points">
              <mxPoint x="353" y="320" />
              <mxPoint x="353" y="239" />
              <mxPoint x="90" y="239" />
            </Array>
          </mxGeometry>
        </mxCell>
        <mxCell id="knfAprby-4VJT82eMWxU-2" value="" style="outlineConnect=0;dashed=0;verticalLabelPosition=bottom;verticalAlign=top;align=center;html=1;shape=mxgraph.aws3.application_load_balancer;fillColor=#F58534;gradientColor=none;fillStyle=solid;fontFamily=Helvetica;fontSize=12;" parent="1" vertex="1">
          <mxGeometry x="318.8" y="285" width="69" height="72" as="geometry" />
        </mxCell>
        <mxCell id="knfAprby-4VJT82eMWxU-8" value="" style="rounded=0;whiteSpace=wrap;html=1;fillStyle=solid;fontFamily=Helvetica;fontSize=12;" parent="1" vertex="1">
          <mxGeometry x="-134" y="-280" width="1080" height="210" as="geometry" />
        </mxCell>
        <mxCell id="-Jr3JqMKqkwSrsszvfw3-2" style="edgeStyle=orthogonalEdgeStyle;rounded=0;orthogonalLoop=1;jettySize=auto;html=1;entryX=0;entryY=0.5;entryDx=0;entryDy=0;entryPerimeter=0;fontFamily=Helvetica;fontSize=17;" parent="1" target="yeAdSVE3h3WFSeXH11BL-1" edge="1">
          <mxGeometry relative="1" as="geometry">
            <mxPoint x="-20" y="90" as="sourcePoint" />
          </mxGeometry>
        </mxCell>
        <mxCell id="knfAprby-4VJT82eMWxU-9" value="" style="rounded=0;whiteSpace=wrap;html=1;fillStyle=solid;fontFamily=Helvetica;fontSize=12;" parent="1" vertex="1">
          <mxGeometry x="-140" y="-20" width="120" height="210" as="geometry" />
        </mxCell>
        <mxCell id="knfAprby-4VJT82eMWxU-10" value="" style="rounded=0;whiteSpace=wrap;html=1;fillStyle=solid;fontFamily=Helvetica;fontSize=12;" parent="1" vertex="1">
          <mxGeometry x="510" y="-20" width="380" height="210" as="geometry" />
        </mxCell>
        <mxCell id="knfAprby-4VJT82eMWxU-12" value="" style="outlineConnect=0;dashed=0;verticalLabelPosition=bottom;verticalAlign=top;align=center;html=1;shape=mxgraph.aws3.vpc_nat_gateway;fillColor=#F58536;gradientColor=none;fillStyle=solid;fontFamily=Helvetica;fontSize=12;" parent="1" vertex="1">
          <mxGeometry x="740" y="49" width="69" height="72" as="geometry" />
        </mxCell>
        <mxCell id="knfAprby-4VJT82eMWxU-13" value="" style="sketch=0;html=1;dashed=0;whitespace=wrap;fillColor=#2875E2;strokeColor=#ffffff;points=[[0.005,0.63,0],[0.1,0.2,0],[0.9,0.2,0],[0.5,0,0],[0.995,0.63,0],[0.72,0.99,0],[0.5,1,0],[0.28,0.99,0]];shape=mxgraph.kubernetes.icon;prIcon=deploy;fillStyle=solid;fontFamily=Helvetica;fontSize=12;" parent="1" vertex="1">
          <mxGeometry x="-80" y="-215" width="130" height="95" as="geometry" />
        </mxCell>
        <mxCell id="knfAprby-4VJT82eMWxU-14" value="" style="sketch=0;html=1;dashed=0;whitespace=wrap;fillColor=#2875E2;strokeColor=#ffffff;points=[[0.005,0.63,0],[0.1,0.2,0],[0.9,0.2,0],[0.5,0,0],[0.995,0.63,0],[0.72,0.99,0],[0.5,1,0],[0.28,0.99,0]];shape=mxgraph.kubernetes.icon;prIcon=deploy;fillStyle=solid;fontFamily=Helvetica;fontSize=12;" parent="1" vertex="1">
          <mxGeometry x="180" y="-215" width="130" height="95" as="geometry" />
        </mxCell>
        <mxCell id="knfAprby-4VJT82eMWxU-15" value="" style="sketch=0;html=1;dashed=0;whitespace=wrap;fillColor=#2875E2;strokeColor=#ffffff;points=[[0.005,0.63,0],[0.1,0.2,0],[0.9,0.2,0],[0.5,0,0],[0.995,0.63,0],[0.72,0.99,0],[0.5,1,0],[0.28,0.99,0]];shape=mxgraph.kubernetes.icon;prIcon=deploy;fillStyle=solid;fontFamily=Helvetica;fontSize=12;" parent="1" vertex="1">
          <mxGeometry x="440" y="-215" width="134" height="95" as="geometry" />
        </mxCell>
        <mxCell id="knfAprby-4VJT82eMWxU-16" value="" style="sketch=0;html=1;dashed=0;whitespace=wrap;fillColor=#2875E2;strokeColor=#ffffff;points=[[0.005,0.63,0],[0.1,0.2,0],[0.9,0.2,0],[0.5,0,0],[0.995,0.63,0],[0.72,0.99,0],[0.5,1,0],[0.28,0.99,0]];shape=mxgraph.kubernetes.icon;prIcon=deploy;fillStyle=solid;fontFamily=Helvetica;fontSize=12;" parent="1" vertex="1">
          <mxGeometry x="700" y="-215" width="130" height="95" as="geometry" />
        </mxCell>
        <mxCell id="knfAprby-4VJT82eMWxU-17" value="EKS Control Plane" style="text;html=1;strokeColor=none;fillColor=none;align=center;verticalAlign=middle;whiteSpace=wrap;rounded=0;fillStyle=solid;fontFamily=Helvetica;fontSize=20;fontStyle=1" parent="1" vertex="1">
          <mxGeometry x="300" y="-321" width="220" height="30" as="geometry" />
        </mxCell>
        <mxCell id="knfAprby-4VJT82eMWxU-19" value="ALB Ingress Controller" style="text;html=1;strokeColor=none;fillColor=none;align=center;verticalAlign=middle;whiteSpace=wrap;rounded=0;fillStyle=solid;fontFamily=Helvetica;fontSize=17;fontStyle=1" parent="1" vertex="1">
          <mxGeometry x="-110" y="-245" width="220" height="30" as="geometry" />
        </mxCell>
        <mxCell id="knfAprby-4VJT82eMWxU-20" value="Prometheus" style="text;html=1;strokeColor=none;fillColor=none;align=center;verticalAlign=middle;whiteSpace=wrap;rounded=0;fillStyle=solid;fontFamily=Helvetica;fontSize=17;fontStyle=1" parent="1" vertex="1">
          <mxGeometry x="130" y="-245" width="220" height="30" as="geometry" />
        </mxCell>
        <mxCell id="knfAprby-4VJT82eMWxU-21" value="external-dns" style="text;html=1;strokeColor=none;fillColor=none;align=center;verticalAlign=middle;whiteSpace=wrap;rounded=0;fillStyle=solid;fontFamily=Helvetica;fontSize=17;fontStyle=1" parent="1" vertex="1">
          <mxGeometry x="400" y="-245" width="220" height="30" as="geometry" />
        </mxCell>
        <mxCell id="knfAprby-4VJT82eMWxU-22" value="Cluster Autoscaler" style="text;html=1;strokeColor=none;fillColor=none;align=center;verticalAlign=middle;whiteSpace=wrap;rounded=0;fillStyle=solid;fontFamily=Helvetica;fontSize=17;fontStyle=1" parent="1" vertex="1">
          <mxGeometry x="650" y="-245" width="220" height="30" as="geometry" />
        </mxCell>
        <mxCell id="knfAprby-4VJT82eMWxU-50" style="edgeStyle=orthogonalEdgeStyle;rounded=0;orthogonalLoop=1;jettySize=auto;html=1;exitX=0.5;exitY=0;exitDx=0;exitDy=0;exitPerimeter=0;fontFamily=Helvetica;fontSize=17;dashed=1;" parent="1" source="knfAprby-4VJT82eMWxU-23" target="knfAprby-4VJT82eMWxU-12" edge="1">
          <mxGeometry relative="1" as="geometry">
            <Array as="points">
              <mxPoint x="-135" y="-330" />
              <mxPoint x="775" y="-330" />
            </Array>
          </mxGeometry>
        </mxCell>
        <mxCell id="knfAprby-4VJT82eMWxU-23" value="" style="sketch=0;html=1;dashed=0;whitespace=wrap;fillColor=#2875E2;strokeColor=#ffffff;points=[[0.005,0.63,0],[0.1,0.2,0],[0.9,0.2,0],[0.5,0,0],[0.995,0.63,0],[0.72,0.99,0],[0.5,1,0],[0.28,0.99,0]];shape=mxgraph.kubernetes.icon;prIcon=master;fillStyle=solid;fontFamily=Helvetica;fontSize=17;" parent="1" vertex="1">
          <mxGeometry x="-170" y="-316.5" width="70" height="71.5" as="geometry" />
        </mxCell>
        <mxCell id="knfAprby-4VJT82eMWxU-25" value="" style="sketch=0;html=1;dashed=0;whitespace=wrap;fillColor=#2875E2;strokeColor=#ffffff;points=[[0.005,0.63,0],[0.1,0.2,0],[0.9,0.2,0],[0.5,0,0],[0.995,0.63,0],[0.72,0.99,0],[0.5,1,0],[0.28,0.99,0]];shape=mxgraph.kubernetes.icon;prIcon=pod;fillStyle=solid;fontFamily=Helvetica;fontSize=17;" parent="1" vertex="1">
          <mxGeometry x="-125" y="17.5" width="75" height="52.5" as="geometry" />
        </mxCell>
        <mxCell id="knfAprby-4VJT82eMWxU-51" style="edgeStyle=orthogonalEdgeStyle;rounded=0;orthogonalLoop=1;jettySize=auto;html=1;exitX=0.5;exitY=0;exitDx=0;exitDy=0;exitPerimeter=0;entryX=0;entryY=0.5;entryDx=0;entryDy=0;entryPerimeter=0;dashed=1;fontFamily=Helvetica;fontSize=17;" parent="1" source="knfAprby-4VJT82eMWxU-27" target="knfAprby-4VJT82eMWxU-12" edge="1">
          <mxGeometry relative="1" as="geometry" />
        </mxCell>
        <mxCell id="knfAprby-4VJT82eMWxU-28" value="Public Subnet&lt;br&gt;(10.0.1.0/24 us-east-1d)" style="text;html=1;strokeColor=none;fillColor=none;align=center;verticalAlign=middle;whiteSpace=wrap;rounded=0;fillStyle=solid;fontFamily=Helvetica;fontSize=17;fontStyle=1" parent="1" vertex="1">
          <mxGeometry x="520" y="49" width="200" height="30" as="geometry" />
        </mxCell>
        <mxCell id="knfAprby-4VJT82eMWxU-27" value="" style="sketch=0;html=1;dashed=0;whitespace=wrap;fillColor=#2875E2;strokeColor=#ffffff;points=[[0.005,0.63,0],[0.1,0.2,0],[0.9,0.2,0],[0.5,0,0],[0.995,0.63,0],[0.72,0.99,0],[0.5,1,0],[0.28,0.99,0]];shape=mxgraph.kubernetes.icon;prIcon=node;fillStyle=solid;fontFamily=Helvetica;fontSize=17;" parent="1" vertex="1">
          <mxGeometry x="120" y="151" width="60" height="50.5" as="geometry" />
        </mxCell>
        <mxCell id="knfAprby-4VJT82eMWxU-29" value="Private Subnet (10.0.2.0/24 us-east-1d)" style="text;html=1;strokeColor=none;fillColor=none;align=center;verticalAlign=middle;whiteSpace=wrap;rounded=0;fillStyle=solid;fontFamily=Helvetica;fontSize=17;fontStyle=1" parent="1" vertex="1">
          <mxGeometry x="-195" y="-56" width="470" height="30" as="geometry" />
        </mxCell>
        <mxCell id="knfAprby-4VJT82eMWxU-30" value="Private Subnet (10.0.3.0/24 us-east-1d)" style="text;html=1;strokeColor=none;fillColor=none;align=center;verticalAlign=middle;whiteSpace=wrap;rounded=0;fillStyle=solid;fontFamily=Helvetica;fontSize=17;fontStyle=1" parent="1" vertex="1">
          <mxGeometry x="130" y="-280" width="470" height="30" as="geometry" />
        </mxCell>
        <mxCell id="knfAprby-4VJT82eMWxU-31" value="Pod" style="text;html=1;strokeColor=none;fillColor=none;align=center;verticalAlign=middle;whiteSpace=wrap;rounded=0;fillStyle=solid;fontFamily=Helvetica;fontSize=17;fontStyle=1" parent="1" vertex="1">
          <mxGeometry x="-197.5" y="151" width="220" height="30" as="geometry" />
        </mxCell>
        <mxCell id="knfAprby-4VJT82eMWxU-32" value="Pod" style="text;html=1;strokeColor=none;fillColor=none;align=center;verticalAlign=middle;whiteSpace=wrap;rounded=0;fillStyle=solid;fontFamily=Helvetica;fontSize=17;fontStyle=1" parent="1" vertex="1">
          <mxGeometry x="-197.5" y="67" width="220" height="30" as="geometry" />
        </mxCell>
        <mxCell id="knfAprby-4VJT82eMWxU-33" value="Sonarqube" style="text;html=1;strokeColor=none;fillColor=none;align=center;verticalAlign=middle;whiteSpace=wrap;rounded=0;fillStyle=solid;fontFamily=Helvetica;fontSize=17;fontStyle=1" parent="1" vertex="1">
          <mxGeometry x="-109" y="29.5" width="220" height="30" as="geometry" />
        </mxCell>
        <mxCell id="knfAprby-4VJT82eMWxU-34" value="Amazon EKS" style="sketch=0;outlineConnect=0;fontColor=#232F3E;gradientColor=none;strokeColor=#ffffff;fillColor=#232F3E;dashed=0;verticalLabelPosition=middle;verticalAlign=bottom;align=center;html=1;whiteSpace=wrap;fontSize=10;fontStyle=1;spacing=3;shape=mxgraph.aws4.productIcon;prIcon=mxgraph.aws4.eks;fillStyle=solid;fontFamily=Helvetica;" parent="1" vertex="1">
          <mxGeometry x="-235" y="-215" width="80" height="100" as="geometry" />
        </mxCell>
        <mxCell id="knfAprby-4VJT82eMWxU-35" value="Region (us-east-1)" style="text;html=1;strokeColor=none;fillColor=none;align=center;verticalAlign=middle;whiteSpace=wrap;rounded=0;fillStyle=solid;fontFamily=Helvetica;fontSize=17;fontStyle=1" parent="1" vertex="1">
          <mxGeometry x="-134" y="570" width="220" height="30" as="geometry" />
        </mxCell>
        <mxCell id="knfAprby-4VJT82eMWxU-36" value="VPC - 10.0.0.0/16" style="text;html=1;strokeColor=none;fillColor=none;align=center;verticalAlign=middle;whiteSpace=wrap;rounded=0;fillStyle=solid;fontFamily=Helvetica;fontSize=17;fontStyle=1" parent="1" vertex="1">
          <mxGeometry x="-134" y="510" width="220" height="30" as="geometry" />
        </mxCell>
        <mxCell id="knfAprby-4VJT82eMWxU-46" style="edgeStyle=orthogonalEdgeStyle;rounded=0;orthogonalLoop=1;jettySize=auto;html=1;exitX=0.5;exitY=0;exitDx=0;exitDy=0;fontFamily=Helvetica;fontSize=17;" parent="1" source="knfAprby-4VJT82eMWxU-37" target="knfAprby-4VJT82eMWxU-38" edge="1">
          <mxGeometry relative="1" as="geometry" />
        </mxCell>
        <mxCell id="knfAprby-4VJT82eMWxU-37" value="Route(main)" style="rounded=0;whiteSpace=wrap;html=1;fillStyle=solid;fontFamily=Helvetica;fontSize=17;fontStyle=1" parent="1" vertex="1">
          <mxGeometry x="-31" y="398" width="170" height="60" as="geometry" />
        </mxCell>
        <mxCell id="knfAprby-4VJT82eMWxU-49" style="edgeStyle=orthogonalEdgeStyle;rounded=0;orthogonalLoop=1;jettySize=auto;html=1;exitX=0;exitY=0.5;exitDx=0;exitDy=0;fontFamily=Helvetica;fontSize=17;" parent="1" source="knfAprby-4VJT82eMWxU-38" target="knfAprby-4VJT82eMWxU-8" edge="1">
          <mxGeometry relative="1" as="geometry">
            <Array as="points">
              <mxPoint x="-180" y="315" />
              <mxPoint x="-180" y="-50" />
              <mxPoint x="406" y="-50" />
            </Array>
          </mxGeometry>
        </mxCell>
        <mxCell id="knfAprby-4VJT82eMWxU-38" value="Network Access Control List&lt;br&gt;(main/default)" style="rounded=0;whiteSpace=wrap;html=1;fillStyle=solid;fontFamily=Helvetica;fontSize=17;fontStyle=1" parent="1" vertex="1">
          <mxGeometry x="-70" y="285" width="250" height="60" as="geometry" />
        </mxCell>
        <mxCell id="knfAprby-4VJT82eMWxU-44" style="edgeStyle=orthogonalEdgeStyle;rounded=0;orthogonalLoop=1;jettySize=auto;html=1;entryX=1;entryY=0.5;entryDx=0;entryDy=0;entryPerimeter=0;fontFamily=Helvetica;fontSize=17;" parent="1" target="knfAprby-4VJT82eMWxU-2" edge="1">
          <mxGeometry relative="1" as="geometry">
            <mxPoint x="590" y="321" as="sourcePoint" />
          </mxGeometry>
        </mxCell>
        <mxCell id="knfAprby-4VJT82eMWxU-39" value="Network Access Control List&lt;br&gt;(custom)" style="rounded=0;whiteSpace=wrap;html=1;fillStyle=solid;fontFamily=Helvetica;fontSize=17;fontStyle=1" parent="1" vertex="1">
          <mxGeometry x="590" y="285" width="240" height="60" as="geometry" />
        </mxCell>
        <mxCell id="MJIgwGlWmnjRi8OTkw5F-13" style="edgeStyle=orthogonalEdgeStyle;rounded=0;orthogonalLoop=1;jettySize=auto;html=1;exitX=1;exitY=0.25;exitDx=0;exitDy=0;entryX=0;entryY=0.5;entryDx=0;entryDy=0;entryPerimeter=0;fontFamily=Helvetica;fontSize=15;" parent="1" source="MJIgwGlWmnjRi8OTkw5F-6" target="yeAdSVE3h3WFSeXH11BL-1" edge="1">
          <mxGeometry relative="1" as="geometry" />
        </mxCell>
        <mxCell id="MJIgwGlWmnjRi8OTkw5F-6" value="" style="rounded=0;whiteSpace=wrap;html=1;fillStyle=solid;fontFamily=Helvetica;fontSize=12;fillColor=none;" parent="1" vertex="1">
          <mxGeometry x="30" y="-20" width="120" height="210" as="geometry" />
        </mxCell>
        <mxCell id="knfAprby-4VJT82eMWxU-45" style="edgeStyle=orthogonalEdgeStyle;rounded=0;orthogonalLoop=1;jettySize=auto;html=1;exitX=0.5;exitY=0;exitDx=0;exitDy=0;fontFamily=Helvetica;fontSize=17;" parent="1" source="knfAprby-4VJT82eMWxU-40" target="knfAprby-4VJT82eMWxU-39" edge="1">
          <mxGeometry relative="1" as="geometry" />
        </mxCell>
        <mxCell id="knfAprby-4VJT82eMWxU-40" value="Route(custom)" style="rounded=0;whiteSpace=wrap;html=1;fillStyle=solid;fontFamily=Helvetica;fontSize=17;fontStyle=1" parent="1" vertex="1">
          <mxGeometry x="624" y="398" width="170" height="60" as="geometry" />
        </mxCell>
        <mxCell id="yeAdSVE3h3WFSeXH11BL-1" value="" style="outlineConnect=0;dashed=0;verticalLabelPosition=bottom;verticalAlign=top;align=center;html=1;shape=mxgraph.aws3.rds;fillColor=#2E73B8;gradientColor=none;" parent="1" vertex="1">
          <mxGeometry x="330" y="-7" width="70" height="80" as="geometry" />
        </mxCell>
        <mxCell id="-Jr3JqMKqkwSrsszvfw3-1" value="&lt;span style=&quot;font-family: Roboto, &amp;quot;Helvetica Neue&amp;quot;, Helvetica, Arial, sans-serif; text-align: start; background-color: rgb(240, 240, 240); font-size: 15px;&quot;&gt;&lt;font style=&quot;font-size: 15px;&quot;&gt;RDS postgres-12 db.m5.large&lt;/font&gt;&lt;/span&gt;" style="text;html=1;strokeColor=none;fillColor=none;align=center;verticalAlign=middle;whiteSpace=wrap;rounded=0;dashed=1;fillStyle=solid;fontStyle=1;fontSize=15;" parent="1" vertex="1">
          <mxGeometry x="288.5" y="88" width="153" height="30" as="geometry" />
        </mxCell>
        <mxCell id="-Jr3JqMKqkwSrsszvfw3-3" value="Route 53" style="text;html=1;strokeColor=none;fillColor=none;align=center;verticalAlign=middle;whiteSpace=wrap;rounded=0;fillStyle=solid;fontFamily=Helvetica;fontSize=17;fontStyle=1" parent="1" vertex="1">
          <mxGeometry x="150" y="675" width="220" height="30" as="geometry" />
        </mxCell>
        <mxCell id="-Jr3JqMKqkwSrsszvfw3-4" value="Internet Gateway" style="text;html=1;strokeColor=none;fillColor=none;align=center;verticalAlign=middle;whiteSpace=wrap;rounded=0;fillStyle=solid;fontFamily=Helvetica;fontSize=17;fontStyle=1" parent="1" vertex="1">
          <mxGeometry x="340" y="570" width="220" height="30" as="geometry" />
        </mxCell>
        <mxCell id="-Jr3JqMKqkwSrsszvfw3-5" value="Router" style="text;html=1;strokeColor=none;fillColor=none;align=center;verticalAlign=middle;whiteSpace=wrap;rounded=0;fillStyle=solid;fontFamily=Helvetica;fontSize=17;fontStyle=1" parent="1" vertex="1">
          <mxGeometry x="316" y="450" width="220" height="30" as="geometry" />
        </mxCell>
        <mxCell id="-Jr3JqMKqkwSrsszvfw3-6" value="ALB" style="text;html=1;strokeColor=none;fillColor=none;align=center;verticalAlign=middle;whiteSpace=wrap;rounded=0;fillStyle=solid;fontFamily=Helvetica;fontSize=17;fontStyle=1" parent="1" vertex="1">
          <mxGeometry x="190" y="340" width="220" height="30" as="geometry" />
        </mxCell>
        <mxCell id="-Jr3JqMKqkwSrsszvfw3-7" value="NAT Gateway" style="text;html=1;strokeColor=none;fillColor=none;align=center;verticalAlign=middle;whiteSpace=wrap;rounded=0;fillStyle=solid;fontFamily=Helvetica;fontSize=17;fontStyle=1" parent="1" vertex="1">
          <mxGeometry x="664.5" y="121" width="220" height="30" as="geometry" />
        </mxCell>
        <mxCell id="MJIgwGlWmnjRi8OTkw5F-1" value="" style="outlineConnect=0;dashed=0;verticalLabelPosition=bottom;verticalAlign=top;align=center;html=1;shape=mxgraph.aws3.ec2;fillColor=#F58534;gradientColor=none;fillStyle=solid;fontFamily=Helvetica;fontSize=15;" parent="1" vertex="1">
          <mxGeometry x="-159.12" y="-41" width="39.12" height="51" as="geometry" />
        </mxCell>
        <mxCell id="MJIgwGlWmnjRi8OTkw5F-3" value="EC2" style="text;html=1;strokeColor=none;fillColor=none;align=center;verticalAlign=middle;whiteSpace=wrap;rounded=0;fillStyle=solid;fontFamily=Helvetica;fontSize=17;fontStyle=1" parent="1" vertex="1">
          <mxGeometry x="-286" y="-30.5" width="220" height="30" as="geometry" />
        </mxCell>
        <mxCell id="MJIgwGlWmnjRi8OTkw5F-7" value="" style="outlineConnect=0;dashed=0;verticalLabelPosition=bottom;verticalAlign=top;align=center;html=1;shape=mxgraph.aws3.ec2;fillColor=#F58534;gradientColor=none;fillStyle=solid;fontFamily=Helvetica;fontSize=15;" parent="1" vertex="1">
          <mxGeometry x="10.879999999999995" y="-41" width="39.12" height="51" as="geometry" />
        </mxCell>
        <mxCell id="MJIgwGlWmnjRi8OTkw5F-8" value="" style="sketch=0;html=1;dashed=0;whitespace=wrap;fillColor=#2875E2;strokeColor=#ffffff;points=[[0.005,0.63,0],[0.1,0.2,0],[0.9,0.2,0],[0.5,0,0],[0.995,0.63,0],[0.72,0.99,0],[0.5,1,0],[0.28,0.99,0]];shape=mxgraph.kubernetes.icon;prIcon=pod;fillStyle=solid;fontFamily=Helvetica;fontSize=17;" parent="1" vertex="1">
          <mxGeometry x="-125" y="98.5" width="75" height="52.5" as="geometry" />
        </mxCell>
        <mxCell id="MJIgwGlWmnjRi8OTkw5F-9" value="" style="sketch=0;html=1;dashed=0;whitespace=wrap;fillColor=#2875E2;strokeColor=#ffffff;points=[[0.005,0.63,0],[0.1,0.2,0],[0.9,0.2,0],[0.5,0,0],[0.995,0.63,0],[0.72,0.99,0],[0.5,1,0],[0.28,0.99,0]];shape=mxgraph.kubernetes.icon;prIcon=pod;fillStyle=solid;fontFamily=Helvetica;fontSize=17;" parent="1" vertex="1">
          <mxGeometry x="45" y="22.5" width="75" height="52.5" as="geometry" />
        </mxCell>
        <mxCell id="MJIgwGlWmnjRi8OTkw5F-10" value="" style="sketch=0;html=1;dashed=0;whitespace=wrap;fillColor=#2875E2;strokeColor=#ffffff;points=[[0.005,0.63,0],[0.1,0.2,0],[0.9,0.2,0],[0.5,0,0],[0.995,0.63,0],[0.72,0.99,0],[0.5,1,0],[0.28,0.99,0]];shape=mxgraph.kubernetes.icon;prIcon=pod;fillStyle=solid;fontFamily=Helvetica;fontSize=17;" parent="1" vertex="1">
          <mxGeometry x="45" y="109.75" width="75" height="52.5" as="geometry" />
        </mxCell>
        <mxCell id="MJIgwGlWmnjRi8OTkw5F-11" value="Pod" style="text;html=1;strokeColor=none;fillColor=none;align=center;verticalAlign=middle;whiteSpace=wrap;rounded=0;fillStyle=solid;fontFamily=Helvetica;fontSize=17;fontStyle=1" parent="1" vertex="1">
          <mxGeometry x="-29" y="68" width="220" height="30" as="geometry" />
        </mxCell>
        <mxCell id="MJIgwGlWmnjRi8OTkw5F-12" value="Pod" style="text;html=1;strokeColor=none;fillColor=none;align=center;verticalAlign=middle;whiteSpace=wrap;rounded=0;fillStyle=solid;fontFamily=Helvetica;fontSize=17;fontStyle=1" parent="1" vertex="1">
          <mxGeometry x="-30" y="154" width="220" height="30" as="geometry" />
        </mxCell>
        <mxCell id="MJIgwGlWmnjRi8OTkw5F-15" value="EC2" style="text;html=1;strokeColor=none;fillColor=none;align=center;verticalAlign=middle;whiteSpace=wrap;rounded=0;fillStyle=solid;fontFamily=Helvetica;fontSize=17;fontStyle=1" parent="1" vertex="1">
          <mxGeometry x="-112" y="-33.5" width="220" height="30" as="geometry" />
        </mxCell>
        <mxCell id="MJIgwGlWmnjRi8OTkw5F-16" value="" style="sketch=0;html=1;dashed=0;whitespace=wrap;fillColor=#2875E2;strokeColor=#ffffff;points=[[0.005,0.63,0],[0.1,0.2,0],[0.9,0.2,0],[0.5,0,0],[0.995,0.63,0],[0.72,0.99,0],[0.5,1,0],[0.28,0.99,0]];shape=mxgraph.kubernetes.icon;prIcon=node;fillStyle=solid;fontFamily=Helvetica;fontSize=17;" parent="1" vertex="1">
          <mxGeometry x="-54" y="154" width="60" height="50.5" as="geometry" />
        </mxCell>
        <mxCell id="MJIgwGlWmnjRi8OTkw5F-17" value="" style="sketch=0;html=1;dashed=0;whitespace=wrap;fillColor=#2875E2;strokeColor=#ffffff;points=[[0.005,0.63,0],[0.1,0.2,0],[0.9,0.2,0],[0.5,0,0],[0.995,0.63,0],[0.72,0.99,0],[0.5,1,0],[0.28,0.99,0]];shape=mxgraph.kubernetes.icon;prIcon=node;fillStyle=solid;fontFamily=Helvetica;fontSize=17;" parent="1" vertex="1">
          <mxGeometry x="120" y="151" width="60" height="50.5" as="geometry" />
        </mxCell>
        <mxCell id="MJIgwGlWmnjRi8OTkw5F-19" value="Elasticsearch" style="text;html=1;strokeColor=none;fillColor=none;align=center;verticalAlign=middle;whiteSpace=wrap;rounded=0;fillStyle=solid;fontFamily=Helvetica;fontSize=17;fontStyle=1" parent="1" vertex="1">
          <mxGeometry x="-107" y="109.75" width="220" height="30" as="geometry" />
        </mxCell>
      </root>
    </mxGraphModel>
  </diagram>
  <diagram name="Copy of Page-3" id="qv_WCT6hFZB8P8x9PStm">
    <mxGraphModel dx="1182" dy="836" grid="1" gridSize="10" guides="1" tooltips="1" connect="1" arrows="1" fold="1" page="0" pageScale="1" pageWidth="850" pageHeight="1100" math="0" shadow="0">
      <root>
        <mxCell id="1TEvrV3OOSXdkgy0pKVO-0" />
        <mxCell id="1TEvrV3OOSXdkgy0pKVO-1" parent="1TEvrV3OOSXdkgy0pKVO-0" />
        <mxCell id="1TEvrV3OOSXdkgy0pKVO-2" value="" style="rounded=0;whiteSpace=wrap;html=1;fillStyle=solid;fontFamily=Helvetica;fontSize=12;" vertex="1" parent="1TEvrV3OOSXdkgy0pKVO-1">
          <mxGeometry x="-270" y="-360" width="1290" height="970" as="geometry" />
        </mxCell>
        <mxCell id="1TEvrV3OOSXdkgy0pKVO-3" value="" style="edgeStyle=orthogonalEdgeStyle;rounded=0;orthogonalLoop=1;jettySize=auto;html=1;fontFamily=Helvetica;fontSize=12;" edge="1" parent="1TEvrV3OOSXdkgy0pKVO-1" source="1TEvrV3OOSXdkgy0pKVO-5" target="1TEvrV3OOSXdkgy0pKVO-7">
          <mxGeometry relative="1" as="geometry" />
        </mxCell>
        <mxCell id="1TEvrV3OOSXdkgy0pKVO-4" value="" style="rounded=0;whiteSpace=wrap;html=1;fillStyle=solid;fontFamily=Helvetica;fontSize=12;" vertex="1" parent="1TEvrV3OOSXdkgy0pKVO-1">
          <mxGeometry x="-259" y="-336" width="1230" height="890" as="geometry" />
        </mxCell>
        <mxCell id="1TEvrV3OOSXdkgy0pKVO-5" value="Users" style="sketch=0;outlineConnect=0;fontColor=#232F3E;gradientColor=none;strokeColor=#232F3E;fillColor=#ffffff;dashed=0;verticalLabelPosition=bottom;verticalAlign=top;align=center;html=1;fontSize=12;fontStyle=0;aspect=fixed;shape=mxgraph.aws4.resourceIcon;resIcon=mxgraph.aws4.users;" vertex="1" parent="1TEvrV3OOSXdkgy0pKVO-1">
          <mxGeometry x="320" y="770" width="60" height="60" as="geometry" />
        </mxCell>
        <mxCell id="1TEvrV3OOSXdkgy0pKVO-6" value="" style="edgeStyle=orthogonalEdgeStyle;rounded=0;orthogonalLoop=1;jettySize=auto;html=1;fontFamily=Helvetica;fontSize=12;" edge="1" parent="1TEvrV3OOSXdkgy0pKVO-1" source="1TEvrV3OOSXdkgy0pKVO-7" target="1TEvrV3OOSXdkgy0pKVO-9">
          <mxGeometry relative="1" as="geometry" />
        </mxCell>
        <mxCell id="1TEvrV3OOSXdkgy0pKVO-7" value="" style="shape=image;verticalLabelPosition=bottom;labelBackgroundColor=default;verticalAlign=top;aspect=fixed;imageAspect=0;image=data:image/jpeg,/9j/4AAQSkZJRgABAQAAAQABAAD/2wCEAAoHCA8VERUPEBUWGBEYFRoYGRoVGhgYGR0eGRkaGhofHBwcIS4lHh4rHxgYJjgoKy8xNUM1GiQ7QD0zPy40NzEBDAwMEA8QHxISHzQsISE/MTExNDQ9MTQ0NTQxNDY0NDYxNDE0NDQ0NDQ0NDQ0MTExNDQ0NDQ0MTQ0NDQxMTQxNP/AABEIAOIA3wMBIgACEQEDEQH/xAAbAAACAwEBAQAAAAAAAAAAAAAAAQUGBwQCA//EAEMQAAIBAgIHBAcFBAoDAQAAAAECAAMRBAUGEiExQWFxIlGBkQcTMkJygqEjUmKSsRSissEVFyQzU1TC0dLhFkPwc//EABkBAQEBAQEBAAAAAAAAAAAAAAABAgMEBf/EACcRAQACAgIBBAEEAwAAAAAAAAABAgMRITESEyJBUTNCYXGBMlKR/9oADAMBAAIRAxEAPwCCjihPotHHFCA44oQHHFCA4QhAcIo4BCEIDhFHAI4oQpwhCAQhCA4RRwCOKEBxxQkHLHFCVDjihAccUIDjihAccUIDhCEBwijgEIQgOEUcAjihCnCEIBCEIDhFHAI4oQOaEITSCOKEyHHFCA525blOJxBYYemz6ou1ioAvuuWIF9+zfPnl2BqV6q0KQuzHwA4sx4ADbNgy/C4bA4UKWCoti7vYazMQNZupsOQsOE55MnhxHZLGqtN1ZkdSrqSGDCxBG8ETzNZ0l0Xo4setQha9uyw2qw4B7bx3EbRzGyZjmeV4nDvqYhCh4HerfCw2H9e+0UyRb+TbkjihOgclMjyOvi3ZaVgqi7O1wovuGwG5O3Zyn0yDR3EYphqDVo37VRh2R36v3m5DxImmAYTL8L92mvi7sf4nNumzgBs5ZMmuI7NsqzjKq2Gq+prAXtdWW5Vh3gkeE4ZsOPwOFzDDKQQUYa1N13g7v+ip7uBGzL85yTEYV9WsvYJ7LrtVuh4Hkdv6xTJ5cT2I6EITqHPrhcPUqOtOkCzk2Cjef+uc6soyXE4ltWgpK3sXbYi9W/kLnlNNyLIsPgqbOSC+rd6r2GwbSBf2V/8AjwnO+SK/ybZbmGX16DhK6FHIuAbEEcipIPgZzTXs7yyjjsMNVgSRrUqg4Ej+E7iP5gTJcTQem5pVFIdTqsDwI/lzimTyj9yJfOEIToohCEBwijgcscUJpDhCEAnumjMwRASzEAAbSSTYADvvPF5pWgmjXq1GNxC/asPs1PuKRvPcxHkDzNud7xSNyJTRPIFwdEvUt69heoxIsoG3VB7hxPE8gLUXS/SI4qrqISMMh7A3ax3FyPMDuHUyX090l1y2CoN2VNqrDiR7g5A7+ezgb1jIMmq4qsKNPYo2u5Fwi957ydwHHoCRypX9d0d+j2lmIwtqZ+0ofcY2K/C3Dpu6b5oGB0ly7FLqFlBbYadcBSeVm2N4Eyo5toBiEGthmFUW2q1kbw26p+njKjicNUptqVUZG7nUqfI7xE1pfmO1a5X0Qy1zc0APgZ0HkrAfSesPotllLtCgmzbeoWcD85IEyKjiaiC1N3UfgZl/QxVazv7bs3xsW/WPSt15JpqubaY4GgurTIq1ALBaZGqOrDYB0ueUzfOc3r4qp6ys272UHsqPwjv7zv8ApPhgcBXrtq0KbOd3ZFwOrbl8SJeci0CUWfGnWPCmhIA+JxYk8hYczERTH/K9KnkOf18I5amdZCe0jHstzH3W5jxvNHyzSnAYhdRnVGIsUq2F+QJ7LeG3kJXs+0CYE1MEbj/Dc7R8LHf0bzlKxeFq0m1KyMjdzArfpfeOYiYrk5js7a1X0SyxzrGgov8AcZ0HkrAfSFDRTLKfaFBTb/ELOPJyRMjo4ionsO6/AzL+hhWru/tuzfGxb9Y9K32mmr5jpXgMONRWDsBYJRswHIkdlfO/KZ9n+kmIxRsx1aQNwgOzkWPvH6dwEjcFgq1VtSiju34ATbqdw8Zbst9H9ZkLYmoKbEbFQByPiN7eAv1iIpTme1c2hWkfqH/Z6x+wZthO5GPHkp49x298summjnr09fRH9oQbh76j3fiHDy7rZ1muXVcPWahVHaXcRuZTuYcj/uOEu+gmkmuBgq7dsC1Nj7wHuH8QG7vHTbL1176jPoS86d6N2LY2gNh21VHD8YHd97z75RZ2peLRuFOEITQIQhA5oRRzSCOKECe0LoYd8bTXEW1bEqG3M4tqqe/ibcSAONppWlj4oYSo2F/vOJF9YJt1ig4sB/MjaAJi4M1XQXSM4hDQrNfEILgne6btb4gbA9QeJnlzVncW+kllYmv6D4aguCptRsS41nPEvuYHoRYchzlI06yQYfECrTFqNW7ADcGHtDkNoI6kcJ2ejfNSldsI57FQFl5Oo2+ag/kE1k99Nwsu5dPa1OvUpYqgNVXYWpntKAbWN9j9ezJ/D6U5XXXVeogB3rXGoP3+yfAmVX0l5aFrJilGyoNRviUdk9Suz5JSZK462rExwmmyf0PlD9paeHIP3dQD92H9G5PS7TJhVtxfU/VpjeqO6AAl9Gf9pNNdxmmGW0Rqo+uRuWitx4NsT6ynZ1pviqwKUfsaZ2dk3qH5vd+XbzlVhLGKsLpccm08xFMBMSvrVHvCyuOvBvGx5mW3DaVZZXXVaoi33rXGqPEt2T4EzIoROGs/sabD/ROUVO0tPDG/FNQfww/ozKKfaanhltxfU/1THtUQAEz6M/cpprmK0ty2iuqjh7blorrDwIso85EYDTSviMXSoUaKikzWYMSX1bG7XGxbDbax3WvtmdzQPRplo1amLYbSfVr0Fi58Tqj5TJbHWtZk0kPSJh6BwnrXsKqsopniSxGsOY1QT8szJGYEFSQwIIK3uCDsItxvLHp3mhrYo0lP2dG6Dm3vnzsvy852+j7JRUqHF1BdKbWQHi++/wAoI8SO6ar7Me5Vesnau2GQ4pQKxXtgfS43AkWuN17zJNIKNBMVWTDkGkG7NjcDYCwB7gxYeEuenukLJ/Y6DWqML1GG9VO5R3EjaeVu/Zngkw1mPd9kCOKE7qcIQgcsJ5nqaQ4RRwCduU5gaGIp4hb3VgSBxXcw8VJE4oTMxvgbHpng1r4Coy2JRRWU/CLm3VdYeMyTA4o0qtOuu9HV9nHVIJHiLjxmxaPHXy6gG44dVPQLq/oJii7h0nDD1NfpIa/p5hhUy+ow2lCtRfAgE/lZpkc2LFnWyhmbecCW8fU3/WY5GDqYIOOT+jmi9TGU3qJUVAjavaUm5sDwPOTP9XFf/MJ+Rv8AedZyVidTK7UeOXf+rmv/AJhPyN/vKznuVPha/wCzuwY6qtdQQO1fgekVvW3ESI6Od+R5W2Jrrh0YKSrG7AkdkX3CWj+rmv8A46fkb/eLXrWdTIpEcu39XNf/ADCfkb/efPEaAVkRqhroQiM1tVtuqCe/lM+rX7NqbNgyQLhssRyPYw5qsOZU1G+pMx1jsPSbHpL2MtrAcKOr4EBf0Mxm51H2ksgeoxJdjdiSSe8naT5zYstpJg8AuuNlKkXe3FrFn82Jt4TIsAgatTQ7mqID0LAGarp1UIy6tbiUXwNRb/SM3M1r9kspxWIao7VXN2ZizHmTfZynyhCdlOEUcoI4oQrkhCE0j1CeZ6gOABOwAknYAN5PACKWv0fZMa2J/aHH2VEhtu4v7g8Pa8F75i1orG5GguBhMusTto4e3VlS31b9ZigBtYbTuE0j0mZqFppglPach35Kp7IPVhf5ecqeh2XGvjaSW7CH1j9EII821R4mccXtrNp+UhpOf2o5XVQ+7h/V+JUIPqRMbmmek3HhcMmHB7VR9Yj8Kbf4inkZmcuCON/aw1D0YrbCVD312+iU/wDuVLH6VZgK1VUxDhBUcKNVNgDmw9nutLt6Oktl6n71Rz+9q/ylJOh+aMWY0LXJPaenfab/AHpmvj528tI+H/lmZ/5hvy0/+Mjcfjq1Z/WV3LvYC5AGwbtwAnVmGQY2gutWoMqjew1XUdWUkDxkZO9Yr3GldOCxtWi4q0WKuAQGABNjv3giSf8A5Xmf+Yb8tP8A4yEkzo1kFTF1dUXWkti79w7l72P038jLRXuwsWimJzXF1NZ8Q64dD221U7R36i9nf3ngOokjpvpQKStg6BBrMLO28IrDd8RB8Ab906dIcc+Dw64XA0X1tWwZKbMlNeJLWILE3O3qeeWOxJJYktc3JuTe+299t7zjSkXny1whHdabFmP2+Vuy7S+F1hzPq9YDzmPTVtAMcKmCFM+1SY0yD3b18NU2+UzWeOIn6WWWUqhRldd6sGHUG4/SbDpJQGIy+qKfa1qYdbcdWzrbrqjzmVZ3l5oYmphyNiv2eanap/KR4gzQ/R9moq4b9nY/aUez1Q31T4bV+Ud8mXqLR8JLLgY5OaX5QcPiWCi1J7sncAT2l+UnyKyDnasxMbhRCEJQ4RRwOOOKE0HCEIHulTZ2VEF3ZgqgbyWNgB1JE2jAYejl+Bsx7NNS7sN7MfaI7yTsA6CUD0c5eKmM9awutFS3zN2V+mueqiTPpPzMgU8Ep9r7R+gJCDpcMflE82T33iqSo2Z4969Z8RU9pmvbgBuCjkAAPCadoFk37PhfXVBarVsxvs1VA7APdsJJ+K3CUbQzKBicWocXpU+2/cbHsqep+gaXP0i516qgMKh+0rA61t4TcfzHs9NaMk7mKVJUXSnNv2nFPWU/Zjsp8K3sfEkt80iYoTvEajUKsuUaY4nDYdcPSSmQpY6z6xPaYtuDDvnX/WHj7+xh/wAj/wDOVCEzOOs86Gr6LaWri3NCompW1SRY3RgN9r7jy27OO+VLTzJEw9cVKI1aVW51RuVltrAdwNwQOvC05NBUZsxoavu67NyXUYG/iQPGWv0ouPUUF941SR0CkH6ss468MkRX5T5ZtLRozpX+x0Woijrlqhe+vq2uqLb2T936yrwne1YtGpVouG9IyFrVcOyr3o4c+RVf1kxnGS4XH4cVqWr6xl1qdVRYnuDcSvAg7Rt3GZHNZ9HiOMAutuLuV6a1v4g08+SkU5rwkspdGUlWFmBIIO8EbCPOWHQfNxh8UFY2pVbI3cDfsN4EkdGJkXnrA4vEEbvX1LfnacE7zHlXU/KtK9IuT69NcYg7dMar24oTe/yk36Mx4Sj5Dmr4bELiFuVHZZR7yn2h12AjmBNI0MzcYrCmnVsaiDUcHbrAjsk99xcHmDM50iys4bFPQ26t9ZCeKt7PW21eqmcsc90skNN0my1cZgz6uzPqipSYcTa4APcwNvEHhMgmmejjMi+HbDMdtJhq/C9yB4MGHS0qGmeAFHHVFUWV7VF+e+t+8GjFPjaayQg4RRzuohCEDjjihNBxxQgaZ6K6Q9TiKnFqip4IgI/jMqundctmNe+5dRB0CKT9S3nLZ6K6oOHrpxFUN4MgA/gMqWnNErmNe+5ijjmCi/zBHhPNX8sp8rj6MMKFwtSrbtPVtf8ACii31ZvOUjSzGtVx2IcnYrlF5Kh1BbqQT8xl49GGLVsK9C/bp1CbfhcAg+YYeEpWmGVvQxlQMDq1HaojcCGbWI6qTY+B4iKfknfZ8oWI7oQnpVqFPRDK8RTWpRYqSouaLhhe224bWA6bJ8P6uKN/7+pq92qt/P8A6mcU6jK2ujFW71JB8xtnb/TONtb9oxFv/wBan/KcPTvHVhqWCy/L8tpmoW1SRYvUILtbbYADb0UTOdKM8bF1/WWK00GqineBxJ/EePQDba5iKlR3bXdmZjvLEsfM7Z5lrj8Z8pncmk9odhsJUxLU8Zq+rak2rrNq9rXTVswI7Vtb6y31/R5hGOtTq1VvwJVl8NgP1mZTow+Or0xalVqIO5HdB5KRLalpndZ0NGwno8wqsGq1KlQD3RZAettvkROjSPSihhaRoYYoawXVVUsVpgCwLW2Cw3L04TNa2Z4lxqvXrOp4NUdh5E2nIJj0pmd2nZo79/1jihOwsmgWMNPHogPZqBkbyLL46yjzMnvShhhahXG+7oedwGXys3nIXQHLXq4ta1j6ujdmPDWKkKo57b9BzEmvSfi1tQw49q7VDyFtVfO7flnCfyxpPlFejmsVxxXg9Jx5FWH6Hzkh6UKQFTDvxZain5ShH8Rkd6OqRbHa3BaTsfEqo/i+kkfSjUGvh14hahPzFAP4TE/lg+VFhCE7qcIo4HHCKOaBHFCBbPR1mYpYz1TmyVl1PmBun+perCWD0l5MXRcbTFzTGrUtv1L3Vuikm/Jr8JmqsQQQSCDcEbCCNxB4Ga9ohpGmMpeqq6v7Qq2dTazLu1gOIPEcCe4iebJE1tF4/tJZlkOb1MLXXEU9o9l1OwOp3jkdgIPeB0mr0auAzLD22OvEHsujeG1Tv2jYdu8Sm6V6E1KbGvg1LUd5pjayfCN7L9Rz3in4XFVKbipSdkcbmUkHmOnKatWuSPKs8quOb+jzEoS2FYVE4KxCuOV/Zbr2ekqmNy3E0bivSdLcWUhfBtx8DLXlfpExC2XE01qD7y9h+pFtUnoFlmwmnmWvbWZ6ZPCoh/VdYfWZ88le42nLJAY5spweU4wEquHqniaZXXHVlIYSEzL0dUGu2HqMh+6/bXoDsYdSTLGePnhds1jkvm2jWNw92q0yUHv0+2vUm11HxASHnaJieYDhFeT2UaJY6vZlTUQ+9Vuo8FtrHytzkm0RzIgoEiadl/o9wqWOId6rcQOwv0Ot+9JfVyrCbD+z0mHfqa58+0ZznPHxGzbKcDlGKrW9TRdweIUhfzmy/WWvKPR9UJD4twq/cpm7HkW3L4X6iT2L09y9PYL1D+BCB5vq/S8rGZ6f4pwVoKtFe/238yNUeR6zPlkt1Gk5XLMMywWX0BTUKth2Ka+0x7zxtfex+p2TKMzx9SvWavVPac8NygbAo5AT41Hd3LMWd3O8kszE7BzJl60U0KbWXE41bAbVpHeTwL8vw+fdLEVxxue16Svo/wAnNHDmvUFqlaxAO8IL6l+4m5bxHdKTphmIr42o4N0W1NT3hb3PixbwtLnpxpKKCHC0G/tDizEe4pG/kxG7u3918wEmKszM3n5SDjihO6nCEIHFHFCaHqEUcAn1w9d0ZalNirqbqymxBnyhA0/R3T2lUApY21N92uPYb4vuH6cxukzmujGAxY9aVAdhcVKJAJvxNrq3UgzGJ3ZbnGKw5vh6rIN5UG6nqrXUnna889sPO6To0tGY+jvFLc4d0qL3N9m/Tip63Er2L0fx1L+8oVQO9V11/Mlx9ZZcB6R662GIoo/4kJQ+R1gT5SfwnpBy9/b9ZT+NdYfuFv0k8sle42nLKQbG42MD0IP8jJ7LNL8woWAqmog92t2h+b2h52mm2y3Gr/6K+z8Jdf8AUp8pXc19HVFrthKhRvuPd16BvaXqdaPVrbi8G3Xk2nuEq2SuDRfvY3pn5vd+YAc50ZzofgsSPW0rU6jC4enYq1+LKNjdRY85mebZLisM1sRTKi9g47SN0YbL8jY8p9Mnz7F4U/YP2TvRtqHnbgeYsY9L9VJNNNyrRnAYNfXPqs6i5q1iNnMX7KdRt5mRucekDDpdMMpqt943VB095vIDnKBm2c4nEtrYhy1j2VGxV+FRs8d/OfbJ9HsXiTeinY4u/ZQePvfKDHpR/leTT65npRj69w9VlQ+5T7C9NnaI6kyGRbmwF2PAbSfDjNNyv0fYZbNiWaq33VuifQ6x8x0k5UxGW4JbXo0dnsqFDH5V2tHq1jikG2WYTRzH1PYw9S3e41B5va8sWXejyu1jiaqov3U7beZsAfzScxXpBwK7Ka1anNVCj98g/SQGP9IeJbZQppTHexLt4bAB4gx5ZLdRo5XLLsjwGCQ1FCqQO1VqsC3PtNsUchYSt6Q6eCxpYHadxqsNg+FTvPM7ORlHx+Y4iu2tiKjOeGsdg+FRsXwE5Za4ed2ncrp7eozMWYksSSSxJJJ3kk7zFFCdg44oQHHFCBxwijmgRxQgeoRRwCOKEBxxQge0YghlJDDaCDYjoRulmyfTfG0bK7eupjhUPa8H3/m1pV4TNqxbsbNk+kmCxi+quA7CzUqoFyONgdjDp4gSC0h0BVr1cCdRt5pk9k/CT7J5HZ0mcA8RvG0S56O6d1aQFPFhqtMDYwsag5G5AYcyb8zOE47U5p/xNJzR/QOjTtUxdqtTfqf+teoPtnrs5cZI53pdg8Lemv2lVdmpTtZbcGbcvTaeUpWkWmtevenh9alQ42NqjdSPZHIeJN7SqCIxWtzef6NLFm2mOOr3UP6pD7tK6nxf2j4WHKV7nxO+EJ2isV6U4QhNgjihMhxxQgOOKEBxxQgccJ5nqaDhFHAI4oQPUIo4BHFCA44oQHCEIHqE8z1AI4oQHHFCA4QhAI4oQHHFCZDjihA4Y4oTY9wnmepA4RRwCOKED1CKOARxQgOOKEBwhCB6hPM9QHCKOARxQgOEIQCOKEyHHFCBxQhCbQRiEJFeo4QgEIQgMQhCA4QhAcIQgAjEIQCEIQPUIQgOEIQCOEIBCEIBHCEyP//Z;" vertex="1" parent="1TEvrV3OOSXdkgy0pKVO-1">
          <mxGeometry x="320.8" y="660" width="59.2" height="60" as="geometry" />
        </mxCell>
        <mxCell id="1TEvrV3OOSXdkgy0pKVO-8" value="" style="edgeStyle=orthogonalEdgeStyle;rounded=0;orthogonalLoop=1;jettySize=auto;html=1;fontFamily=Helvetica;fontSize=12;" edge="1" parent="1TEvrV3OOSXdkgy0pKVO-1" source="1TEvrV3OOSXdkgy0pKVO-9" target="1TEvrV3OOSXdkgy0pKVO-12">
          <mxGeometry relative="1" as="geometry" />
        </mxCell>
        <mxCell id="1TEvrV3OOSXdkgy0pKVO-9" value="" style="outlineConnect=0;dashed=0;verticalLabelPosition=bottom;verticalAlign=top;align=center;html=1;shape=mxgraph.aws3.internet_gateway;fillColor=#F58534;gradientColor=none;fillStyle=solid;fontFamily=Helvetica;fontSize=12;" vertex="1" parent="1TEvrV3OOSXdkgy0pKVO-1">
          <mxGeometry x="317" y="510" width="69" height="72" as="geometry" />
        </mxCell>
        <mxCell id="1TEvrV3OOSXdkgy0pKVO-10" style="edgeStyle=orthogonalEdgeStyle;rounded=0;orthogonalLoop=1;jettySize=auto;html=1;exitX=0;exitY=0.5;exitDx=0;exitDy=0;exitPerimeter=0;fontFamily=Helvetica;fontSize=17;" edge="1" parent="1TEvrV3OOSXdkgy0pKVO-1" source="1TEvrV3OOSXdkgy0pKVO-12" target="1TEvrV3OOSXdkgy0pKVO-46">
          <mxGeometry relative="1" as="geometry" />
        </mxCell>
        <mxCell id="1TEvrV3OOSXdkgy0pKVO-11" style="edgeStyle=orthogonalEdgeStyle;rounded=0;orthogonalLoop=1;jettySize=auto;html=1;exitX=1;exitY=0.5;exitDx=0;exitDy=0;exitPerimeter=0;entryX=0;entryY=0.5;entryDx=0;entryDy=0;fontFamily=Helvetica;fontSize=17;" edge="1" parent="1TEvrV3OOSXdkgy0pKVO-1" source="1TEvrV3OOSXdkgy0pKVO-12" target="1TEvrV3OOSXdkgy0pKVO-54">
          <mxGeometry relative="1" as="geometry" />
        </mxCell>
        <mxCell id="1TEvrV3OOSXdkgy0pKVO-12" value="" style="outlineConnect=0;dashed=0;verticalLabelPosition=bottom;verticalAlign=top;align=center;html=1;shape=mxgraph.aws3.router;fillColor=#F58534;gradientColor=none;fillStyle=solid;fontFamily=Helvetica;fontSize=12;" vertex="1" parent="1TEvrV3OOSXdkgy0pKVO-1">
          <mxGeometry x="317" y="393" width="69" height="72" as="geometry" />
        </mxCell>
        <mxCell id="1TEvrV3OOSXdkgy0pKVO-13" style="edgeStyle=orthogonalEdgeStyle;rounded=0;orthogonalLoop=1;jettySize=auto;html=1;exitX=0.5;exitY=0;exitDx=0;exitDy=0;exitPerimeter=0;fontFamily=Helvetica;fontSize=17;" edge="1" parent="1TEvrV3OOSXdkgy0pKVO-1" source="1TEvrV3OOSXdkgy0pKVO-16">
          <mxGeometry relative="1" as="geometry">
            <mxPoint x="-80" y="210" as="targetPoint" />
          </mxGeometry>
        </mxCell>
        <mxCell id="1TEvrV3OOSXdkgy0pKVO-14" style="edgeStyle=orthogonalEdgeStyle;rounded=0;orthogonalLoop=1;jettySize=auto;html=1;exitX=0.5;exitY=0;exitDx=0;exitDy=0;exitPerimeter=0;fontFamily=Helvetica;fontSize=17;" edge="1" parent="1TEvrV3OOSXdkgy0pKVO-1" source="1TEvrV3OOSXdkgy0pKVO-16" target="1TEvrV3OOSXdkgy0pKVO-20">
          <mxGeometry relative="1" as="geometry" />
        </mxCell>
        <mxCell id="1TEvrV3OOSXdkgy0pKVO-15" style="edgeStyle=orthogonalEdgeStyle;rounded=0;orthogonalLoop=1;jettySize=auto;html=1;exitX=0;exitY=0.5;exitDx=0;exitDy=0;exitPerimeter=0;fontFamily=Helvetica;fontSize=15;" edge="1" parent="1TEvrV3OOSXdkgy0pKVO-1">
          <mxGeometry relative="1" as="geometry">
            <mxPoint x="318.79999999999995" y="320" as="sourcePoint" />
            <mxPoint x="90" y="210" as="targetPoint" />
            <Array as="points">
              <mxPoint x="353" y="320" />
              <mxPoint x="353" y="239" />
              <mxPoint x="90" y="239" />
            </Array>
          </mxGeometry>
        </mxCell>
        <mxCell id="1TEvrV3OOSXdkgy0pKVO-16" value="" style="outlineConnect=0;dashed=0;verticalLabelPosition=bottom;verticalAlign=top;align=center;html=1;shape=mxgraph.aws3.application_load_balancer;fillColor=#F58534;gradientColor=none;fillStyle=solid;fontFamily=Helvetica;fontSize=12;" vertex="1" parent="1TEvrV3OOSXdkgy0pKVO-1">
          <mxGeometry x="318.8" y="285" width="69" height="72" as="geometry" />
        </mxCell>
        <mxCell id="1TEvrV3OOSXdkgy0pKVO-17" value="" style="rounded=0;whiteSpace=wrap;html=1;fillStyle=solid;fontFamily=Helvetica;fontSize=12;" vertex="1" parent="1TEvrV3OOSXdkgy0pKVO-1">
          <mxGeometry x="-134" y="-280" width="1080" height="210" as="geometry" />
        </mxCell>
        <mxCell id="1TEvrV3OOSXdkgy0pKVO-18" style="edgeStyle=orthogonalEdgeStyle;rounded=0;orthogonalLoop=1;jettySize=auto;html=1;entryX=0;entryY=0.5;entryDx=0;entryDy=0;entryPerimeter=0;fontFamily=Helvetica;fontSize=17;" edge="1" parent="1TEvrV3OOSXdkgy0pKVO-1" target="1TEvrV3OOSXdkgy0pKVO-55">
          <mxGeometry relative="1" as="geometry">
            <mxPoint x="-20" y="90" as="sourcePoint" />
          </mxGeometry>
        </mxCell>
        <mxCell id="1TEvrV3OOSXdkgy0pKVO-19" value="" style="rounded=0;whiteSpace=wrap;html=1;fillStyle=solid;fontFamily=Helvetica;fontSize=12;" vertex="1" parent="1TEvrV3OOSXdkgy0pKVO-1">
          <mxGeometry x="-140" y="10" width="120" height="180" as="geometry" />
        </mxCell>
        <mxCell id="1TEvrV3OOSXdkgy0pKVO-20" value="" style="rounded=0;whiteSpace=wrap;html=1;fillStyle=solid;fontFamily=Helvetica;fontSize=12;" vertex="1" parent="1TEvrV3OOSXdkgy0pKVO-1">
          <mxGeometry x="510" y="-20" width="380" height="210" as="geometry" />
        </mxCell>
        <mxCell id="1TEvrV3OOSXdkgy0pKVO-21" value="" style="outlineConnect=0;dashed=0;verticalLabelPosition=bottom;verticalAlign=top;align=center;html=1;shape=mxgraph.aws3.vpc_nat_gateway;fillColor=#F58536;gradientColor=none;fillStyle=solid;fontFamily=Helvetica;fontSize=12;" vertex="1" parent="1TEvrV3OOSXdkgy0pKVO-1">
          <mxGeometry x="740" y="49" width="69" height="72" as="geometry" />
        </mxCell>
        <mxCell id="1TEvrV3OOSXdkgy0pKVO-22" value="" style="sketch=0;html=1;dashed=0;whitespace=wrap;fillColor=#2875E2;strokeColor=#ffffff;points=[[0.005,0.63,0],[0.1,0.2,0],[0.9,0.2,0],[0.5,0,0],[0.995,0.63,0],[0.72,0.99,0],[0.5,1,0],[0.28,0.99,0]];shape=mxgraph.kubernetes.icon;prIcon=deploy;fillStyle=solid;fontFamily=Helvetica;fontSize=12;" vertex="1" parent="1TEvrV3OOSXdkgy0pKVO-1">
          <mxGeometry x="-80" y="-215" width="130" height="95" as="geometry" />
        </mxCell>
        <mxCell id="1TEvrV3OOSXdkgy0pKVO-23" value="" style="sketch=0;html=1;dashed=0;whitespace=wrap;fillColor=#2875E2;strokeColor=#ffffff;points=[[0.005,0.63,0],[0.1,0.2,0],[0.9,0.2,0],[0.5,0,0],[0.995,0.63,0],[0.72,0.99,0],[0.5,1,0],[0.28,0.99,0]];shape=mxgraph.kubernetes.icon;prIcon=deploy;fillStyle=solid;fontFamily=Helvetica;fontSize=12;" vertex="1" parent="1TEvrV3OOSXdkgy0pKVO-1">
          <mxGeometry x="180" y="-215" width="130" height="95" as="geometry" />
        </mxCell>
        <mxCell id="1TEvrV3OOSXdkgy0pKVO-24" value="" style="sketch=0;html=1;dashed=0;whitespace=wrap;fillColor=#2875E2;strokeColor=#ffffff;points=[[0.005,0.63,0],[0.1,0.2,0],[0.9,0.2,0],[0.5,0,0],[0.995,0.63,0],[0.72,0.99,0],[0.5,1,0],[0.28,0.99,0]];shape=mxgraph.kubernetes.icon;prIcon=deploy;fillStyle=solid;fontFamily=Helvetica;fontSize=12;" vertex="1" parent="1TEvrV3OOSXdkgy0pKVO-1">
          <mxGeometry x="440" y="-215" width="134" height="95" as="geometry" />
        </mxCell>
        <mxCell id="1TEvrV3OOSXdkgy0pKVO-25" value="" style="sketch=0;html=1;dashed=0;whitespace=wrap;fillColor=#2875E2;strokeColor=#ffffff;points=[[0.005,0.63,0],[0.1,0.2,0],[0.9,0.2,0],[0.5,0,0],[0.995,0.63,0],[0.72,0.99,0],[0.5,1,0],[0.28,0.99,0]];shape=mxgraph.kubernetes.icon;prIcon=deploy;fillStyle=solid;fontFamily=Helvetica;fontSize=12;" vertex="1" parent="1TEvrV3OOSXdkgy0pKVO-1">
          <mxGeometry x="700" y="-215" width="130" height="95" as="geometry" />
        </mxCell>
        <mxCell id="1TEvrV3OOSXdkgy0pKVO-26" value="EKS Control Plane" style="text;html=1;strokeColor=none;fillColor=none;align=center;verticalAlign=middle;whiteSpace=wrap;rounded=0;fillStyle=solid;fontFamily=Helvetica;fontSize=20;fontStyle=1" vertex="1" parent="1TEvrV3OOSXdkgy0pKVO-1">
          <mxGeometry x="300" y="-321" width="220" height="30" as="geometry" />
        </mxCell>
        <mxCell id="1TEvrV3OOSXdkgy0pKVO-27" value="ALB Ingress Controller" style="text;html=1;strokeColor=none;fillColor=none;align=center;verticalAlign=middle;whiteSpace=wrap;rounded=0;fillStyle=solid;fontFamily=Helvetica;fontSize=17;fontStyle=1" vertex="1" parent="1TEvrV3OOSXdkgy0pKVO-1">
          <mxGeometry x="-110" y="-245" width="220" height="30" as="geometry" />
        </mxCell>
        <mxCell id="1TEvrV3OOSXdkgy0pKVO-28" value="Prometheus" style="text;html=1;strokeColor=none;fillColor=none;align=center;verticalAlign=middle;whiteSpace=wrap;rounded=0;fillStyle=solid;fontFamily=Helvetica;fontSize=17;fontStyle=1" vertex="1" parent="1TEvrV3OOSXdkgy0pKVO-1">
          <mxGeometry x="130" y="-245" width="220" height="30" as="geometry" />
        </mxCell>
        <mxCell id="1TEvrV3OOSXdkgy0pKVO-29" value="external-dns" style="text;html=1;strokeColor=none;fillColor=none;align=center;verticalAlign=middle;whiteSpace=wrap;rounded=0;fillStyle=solid;fontFamily=Helvetica;fontSize=17;fontStyle=1" vertex="1" parent="1TEvrV3OOSXdkgy0pKVO-1">
          <mxGeometry x="400" y="-245" width="220" height="30" as="geometry" />
        </mxCell>
        <mxCell id="1TEvrV3OOSXdkgy0pKVO-30" value="Cluster Autoscaler" style="text;html=1;strokeColor=none;fillColor=none;align=center;verticalAlign=middle;whiteSpace=wrap;rounded=0;fillStyle=solid;fontFamily=Helvetica;fontSize=17;fontStyle=1" vertex="1" parent="1TEvrV3OOSXdkgy0pKVO-1">
          <mxGeometry x="650" y="-245" width="220" height="30" as="geometry" />
        </mxCell>
        <mxCell id="1TEvrV3OOSXdkgy0pKVO-31" style="edgeStyle=orthogonalEdgeStyle;rounded=0;orthogonalLoop=1;jettySize=auto;html=1;exitX=0.5;exitY=0;exitDx=0;exitDy=0;exitPerimeter=0;fontFamily=Helvetica;fontSize=17;dashed=1;" edge="1" parent="1TEvrV3OOSXdkgy0pKVO-1" source="1TEvrV3OOSXdkgy0pKVO-32" target="1TEvrV3OOSXdkgy0pKVO-21">
          <mxGeometry relative="1" as="geometry">
            <Array as="points">
              <mxPoint x="-135" y="-330" />
              <mxPoint x="775" y="-330" />
            </Array>
          </mxGeometry>
        </mxCell>
        <mxCell id="1TEvrV3OOSXdkgy0pKVO-32" value="" style="sketch=0;html=1;dashed=0;whitespace=wrap;fillColor=#2875E2;strokeColor=#ffffff;points=[[0.005,0.63,0],[0.1,0.2,0],[0.9,0.2,0],[0.5,0,0],[0.995,0.63,0],[0.72,0.99,0],[0.5,1,0],[0.28,0.99,0]];shape=mxgraph.kubernetes.icon;prIcon=master;fillStyle=solid;fontFamily=Helvetica;fontSize=17;" vertex="1" parent="1TEvrV3OOSXdkgy0pKVO-1">
          <mxGeometry x="-170" y="-316.5" width="70" height="71.5" as="geometry" />
        </mxCell>
        <mxCell id="1TEvrV3OOSXdkgy0pKVO-33" value="" style="sketch=0;html=1;dashed=0;whitespace=wrap;fillColor=#2875E2;strokeColor=#ffffff;points=[[0.005,0.63,0],[0.1,0.2,0],[0.9,0.2,0],[0.5,0,0],[0.995,0.63,0],[0.72,0.99,0],[0.5,1,0],[0.28,0.99,0]];shape=mxgraph.kubernetes.icon;prIcon=pod;fillStyle=solid;fontFamily=Helvetica;fontSize=17;" vertex="1" parent="1TEvrV3OOSXdkgy0pKVO-1">
          <mxGeometry x="-125" y="17.5" width="75" height="52.5" as="geometry" />
        </mxCell>
        <mxCell id="1TEvrV3OOSXdkgy0pKVO-34" style="edgeStyle=orthogonalEdgeStyle;rounded=0;orthogonalLoop=1;jettySize=auto;html=1;exitX=0.5;exitY=0;exitDx=0;exitDy=0;exitPerimeter=0;entryX=0;entryY=0.5;entryDx=0;entryDy=0;entryPerimeter=0;dashed=1;fontFamily=Helvetica;fontSize=17;" edge="1" parent="1TEvrV3OOSXdkgy0pKVO-1" source="1TEvrV3OOSXdkgy0pKVO-36" target="1TEvrV3OOSXdkgy0pKVO-21">
          <mxGeometry relative="1" as="geometry" />
        </mxCell>
        <mxCell id="1TEvrV3OOSXdkgy0pKVO-35" value="Public Subnet&lt;br&gt;(10.0.1.0/24 us-east-1d)" style="text;html=1;strokeColor=none;fillColor=none;align=center;verticalAlign=middle;whiteSpace=wrap;rounded=0;fillStyle=solid;fontFamily=Helvetica;fontSize=17;fontStyle=1" vertex="1" parent="1TEvrV3OOSXdkgy0pKVO-1">
          <mxGeometry x="520" y="49" width="200" height="30" as="geometry" />
        </mxCell>
        <mxCell id="1TEvrV3OOSXdkgy0pKVO-36" value="" style="sketch=0;html=1;dashed=0;whitespace=wrap;fillColor=#2875E2;strokeColor=#ffffff;points=[[0.005,0.63,0],[0.1,0.2,0],[0.9,0.2,0],[0.5,0,0],[0.995,0.63,0],[0.72,0.99,0],[0.5,1,0],[0.28,0.99,0]];shape=mxgraph.kubernetes.icon;prIcon=node;fillStyle=solid;fontFamily=Helvetica;fontSize=17;" vertex="1" parent="1TEvrV3OOSXdkgy0pKVO-1">
          <mxGeometry x="120" y="151" width="60" height="50.5" as="geometry" />
        </mxCell>
        <mxCell id="1TEvrV3OOSXdkgy0pKVO-37" value="Private Subnet (10.0.2.0/24 us-east-1d)" style="text;html=1;strokeColor=none;fillColor=none;align=center;verticalAlign=middle;whiteSpace=wrap;rounded=0;fillStyle=solid;fontFamily=Helvetica;fontSize=17;fontStyle=1" vertex="1" parent="1TEvrV3OOSXdkgy0pKVO-1">
          <mxGeometry x="-195" y="-56" width="470" height="30" as="geometry" />
        </mxCell>
        <mxCell id="1TEvrV3OOSXdkgy0pKVO-38" value="Private Subnet (10.0.0.0/24 us-east-1d)" style="text;html=1;strokeColor=none;fillColor=none;align=center;verticalAlign=middle;whiteSpace=wrap;rounded=0;fillStyle=solid;fontFamily=Helvetica;fontSize=17;fontStyle=1" vertex="1" parent="1TEvrV3OOSXdkgy0pKVO-1">
          <mxGeometry x="130" y="-280" width="470" height="30" as="geometry" />
        </mxCell>
        <mxCell id="1TEvrV3OOSXdkgy0pKVO-39" value="Pod" style="text;html=1;strokeColor=none;fillColor=none;align=center;verticalAlign=middle;whiteSpace=wrap;rounded=0;fillStyle=solid;fontFamily=Helvetica;fontSize=17;fontStyle=1" vertex="1" parent="1TEvrV3OOSXdkgy0pKVO-1">
          <mxGeometry x="-197.5" y="151" width="220" height="30" as="geometry" />
        </mxCell>
        <mxCell id="1TEvrV3OOSXdkgy0pKVO-40" value="Pod" style="text;html=1;strokeColor=none;fillColor=none;align=center;verticalAlign=middle;whiteSpace=wrap;rounded=0;fillStyle=solid;fontFamily=Helvetica;fontSize=17;fontStyle=1" vertex="1" parent="1TEvrV3OOSXdkgy0pKVO-1">
          <mxGeometry x="-197.5" y="67" width="220" height="30" as="geometry" />
        </mxCell>
        <mxCell id="1TEvrV3OOSXdkgy0pKVO-41" value="Sonarqube" style="text;html=1;strokeColor=none;fillColor=none;align=center;verticalAlign=middle;whiteSpace=wrap;rounded=0;fillStyle=solid;fontFamily=Helvetica;fontSize=17;fontStyle=1" vertex="1" parent="1TEvrV3OOSXdkgy0pKVO-1">
          <mxGeometry x="-65.5" y="40" width="137" height="30" as="geometry" />
        </mxCell>
        <mxCell id="1TEvrV3OOSXdkgy0pKVO-42" value="Amazon EKS" style="sketch=0;outlineConnect=0;fontColor=#232F3E;gradientColor=none;strokeColor=#ffffff;fillColor=#232F3E;dashed=0;verticalLabelPosition=middle;verticalAlign=bottom;align=center;html=1;whiteSpace=wrap;fontSize=10;fontStyle=1;spacing=3;shape=mxgraph.aws4.productIcon;prIcon=mxgraph.aws4.eks;fillStyle=solid;fontFamily=Helvetica;" vertex="1" parent="1TEvrV3OOSXdkgy0pKVO-1">
          <mxGeometry x="-235" y="-215" width="80" height="100" as="geometry" />
        </mxCell>
        <mxCell id="1TEvrV3OOSXdkgy0pKVO-43" value="Region (us-east-1)" style="text;html=1;strokeColor=none;fillColor=none;align=center;verticalAlign=middle;whiteSpace=wrap;rounded=0;fillStyle=solid;fontFamily=Helvetica;fontSize=17;fontStyle=1" vertex="1" parent="1TEvrV3OOSXdkgy0pKVO-1">
          <mxGeometry x="-134" y="570" width="220" height="30" as="geometry" />
        </mxCell>
        <mxCell id="1TEvrV3OOSXdkgy0pKVO-44" value="VPC - 10.0.0.0/16" style="text;html=1;strokeColor=none;fillColor=none;align=center;verticalAlign=middle;whiteSpace=wrap;rounded=0;fillStyle=solid;fontFamily=Helvetica;fontSize=17;fontStyle=1" vertex="1" parent="1TEvrV3OOSXdkgy0pKVO-1">
          <mxGeometry x="-134" y="510" width="220" height="30" as="geometry" />
        </mxCell>
        <mxCell id="1TEvrV3OOSXdkgy0pKVO-45" style="edgeStyle=orthogonalEdgeStyle;rounded=0;orthogonalLoop=1;jettySize=auto;html=1;exitX=0.5;exitY=0;exitDx=0;exitDy=0;fontFamily=Helvetica;fontSize=17;" edge="1" parent="1TEvrV3OOSXdkgy0pKVO-1" source="1TEvrV3OOSXdkgy0pKVO-46" target="1TEvrV3OOSXdkgy0pKVO-48">
          <mxGeometry relative="1" as="geometry" />
        </mxCell>
        <mxCell id="1TEvrV3OOSXdkgy0pKVO-46" value="Route(main)" style="rounded=0;whiteSpace=wrap;html=1;fillStyle=solid;fontFamily=Helvetica;fontSize=17;fontStyle=1" vertex="1" parent="1TEvrV3OOSXdkgy0pKVO-1">
          <mxGeometry x="-31" y="398" width="170" height="60" as="geometry" />
        </mxCell>
        <mxCell id="1TEvrV3OOSXdkgy0pKVO-47" style="edgeStyle=orthogonalEdgeStyle;rounded=0;orthogonalLoop=1;jettySize=auto;html=1;exitX=0;exitY=0.5;exitDx=0;exitDy=0;fontFamily=Helvetica;fontSize=17;" edge="1" parent="1TEvrV3OOSXdkgy0pKVO-1" source="1TEvrV3OOSXdkgy0pKVO-48" target="1TEvrV3OOSXdkgy0pKVO-17">
          <mxGeometry relative="1" as="geometry">
            <Array as="points">
              <mxPoint x="-180" y="315" />
              <mxPoint x="-180" y="-50" />
              <mxPoint x="406" y="-50" />
            </Array>
          </mxGeometry>
        </mxCell>
        <mxCell id="1TEvrV3OOSXdkgy0pKVO-48" value="Network Access Control List&lt;br&gt;(main/default)" style="rounded=0;whiteSpace=wrap;html=1;fillStyle=solid;fontFamily=Helvetica;fontSize=17;fontStyle=1" vertex="1" parent="1TEvrV3OOSXdkgy0pKVO-1">
          <mxGeometry x="-70" y="285" width="250" height="60" as="geometry" />
        </mxCell>
        <mxCell id="1TEvrV3OOSXdkgy0pKVO-49" style="edgeStyle=orthogonalEdgeStyle;rounded=0;orthogonalLoop=1;jettySize=auto;html=1;entryX=1;entryY=0.5;entryDx=0;entryDy=0;entryPerimeter=0;fontFamily=Helvetica;fontSize=17;" edge="1" parent="1TEvrV3OOSXdkgy0pKVO-1" target="1TEvrV3OOSXdkgy0pKVO-16">
          <mxGeometry relative="1" as="geometry">
            <mxPoint x="590" y="321" as="sourcePoint" />
          </mxGeometry>
        </mxCell>
        <mxCell id="1TEvrV3OOSXdkgy0pKVO-50" value="Network Access Control List&lt;br&gt;(custom)" style="rounded=0;whiteSpace=wrap;html=1;fillStyle=solid;fontFamily=Helvetica;fontSize=17;fontStyle=1" vertex="1" parent="1TEvrV3OOSXdkgy0pKVO-1">
          <mxGeometry x="590" y="285" width="240" height="60" as="geometry" />
        </mxCell>
        <mxCell id="1TEvrV3OOSXdkgy0pKVO-51" style="edgeStyle=orthogonalEdgeStyle;rounded=0;orthogonalLoop=1;jettySize=auto;html=1;exitX=1;exitY=0.25;exitDx=0;exitDy=0;entryX=0;entryY=0.5;entryDx=0;entryDy=0;entryPerimeter=0;fontFamily=Helvetica;fontSize=15;" edge="1" parent="1TEvrV3OOSXdkgy0pKVO-1" source="1TEvrV3OOSXdkgy0pKVO-52" target="1TEvrV3OOSXdkgy0pKVO-55">
          <mxGeometry relative="1" as="geometry" />
        </mxCell>
        <mxCell id="1TEvrV3OOSXdkgy0pKVO-52" value="" style="rounded=0;whiteSpace=wrap;html=1;fillStyle=solid;fontFamily=Helvetica;fontSize=12;fillColor=none;" vertex="1" parent="1TEvrV3OOSXdkgy0pKVO-1">
          <mxGeometry x="30" y="10" width="120" height="180" as="geometry" />
        </mxCell>
        <mxCell id="1TEvrV3OOSXdkgy0pKVO-53" style="edgeStyle=orthogonalEdgeStyle;rounded=0;orthogonalLoop=1;jettySize=auto;html=1;exitX=0.5;exitY=0;exitDx=0;exitDy=0;fontFamily=Helvetica;fontSize=17;" edge="1" parent="1TEvrV3OOSXdkgy0pKVO-1" source="1TEvrV3OOSXdkgy0pKVO-54" target="1TEvrV3OOSXdkgy0pKVO-50">
          <mxGeometry relative="1" as="geometry" />
        </mxCell>
        <mxCell id="1TEvrV3OOSXdkgy0pKVO-54" value="Route(custom)" style="rounded=0;whiteSpace=wrap;html=1;fillStyle=solid;fontFamily=Helvetica;fontSize=17;fontStyle=1" vertex="1" parent="1TEvrV3OOSXdkgy0pKVO-1">
          <mxGeometry x="624" y="398" width="170" height="60" as="geometry" />
        </mxCell>
        <mxCell id="1TEvrV3OOSXdkgy0pKVO-55" value="" style="outlineConnect=0;dashed=0;verticalLabelPosition=bottom;verticalAlign=top;align=center;html=1;shape=mxgraph.aws3.rds;fillColor=#2E73B8;gradientColor=none;" vertex="1" parent="1TEvrV3OOSXdkgy0pKVO-1">
          <mxGeometry x="330" y="-7" width="70" height="80" as="geometry" />
        </mxCell>
        <mxCell id="1TEvrV3OOSXdkgy0pKVO-56" value="&lt;span style=&quot;font-family: Roboto, &amp;quot;Helvetica Neue&amp;quot;, Helvetica, Arial, sans-serif; text-align: start; background-color: rgb(240, 240, 240); font-size: 15px;&quot;&gt;&lt;font style=&quot;font-size: 15px;&quot;&gt;RDS postgres-12 db.m5.large&lt;/font&gt;&lt;/span&gt;" style="text;html=1;strokeColor=none;fillColor=none;align=center;verticalAlign=middle;whiteSpace=wrap;rounded=0;dashed=1;fillStyle=solid;fontStyle=1;fontSize=15;" vertex="1" parent="1TEvrV3OOSXdkgy0pKVO-1">
          <mxGeometry x="288.5" y="88" width="153" height="30" as="geometry" />
        </mxCell>
        <mxCell id="1TEvrV3OOSXdkgy0pKVO-57" value="Route 53" style="text;html=1;strokeColor=none;fillColor=none;align=center;verticalAlign=middle;whiteSpace=wrap;rounded=0;fillStyle=solid;fontFamily=Helvetica;fontSize=17;fontStyle=1" vertex="1" parent="1TEvrV3OOSXdkgy0pKVO-1">
          <mxGeometry x="150" y="675" width="220" height="30" as="geometry" />
        </mxCell>
        <mxCell id="1TEvrV3OOSXdkgy0pKVO-58" value="Internet Gateway" style="text;html=1;strokeColor=none;fillColor=none;align=center;verticalAlign=middle;whiteSpace=wrap;rounded=0;fillStyle=solid;fontFamily=Helvetica;fontSize=17;fontStyle=1" vertex="1" parent="1TEvrV3OOSXdkgy0pKVO-1">
          <mxGeometry x="340" y="570" width="220" height="30" as="geometry" />
        </mxCell>
        <mxCell id="1TEvrV3OOSXdkgy0pKVO-59" value="Router" style="text;html=1;strokeColor=none;fillColor=none;align=center;verticalAlign=middle;whiteSpace=wrap;rounded=0;fillStyle=solid;fontFamily=Helvetica;fontSize=17;fontStyle=1" vertex="1" parent="1TEvrV3OOSXdkgy0pKVO-1">
          <mxGeometry x="316" y="450" width="220" height="30" as="geometry" />
        </mxCell>
        <mxCell id="1TEvrV3OOSXdkgy0pKVO-60" value="ALB" style="text;html=1;strokeColor=none;fillColor=none;align=center;verticalAlign=middle;whiteSpace=wrap;rounded=0;fillStyle=solid;fontFamily=Helvetica;fontSize=17;fontStyle=1" vertex="1" parent="1TEvrV3OOSXdkgy0pKVO-1">
          <mxGeometry x="190" y="340" width="220" height="30" as="geometry" />
        </mxCell>
        <mxCell id="1TEvrV3OOSXdkgy0pKVO-61" value="NAT Gateway" style="text;html=1;strokeColor=none;fillColor=none;align=center;verticalAlign=middle;whiteSpace=wrap;rounded=0;fillStyle=solid;fontFamily=Helvetica;fontSize=17;fontStyle=1" vertex="1" parent="1TEvrV3OOSXdkgy0pKVO-1">
          <mxGeometry x="664.5" y="121" width="220" height="30" as="geometry" />
        </mxCell>
        <mxCell id="1TEvrV3OOSXdkgy0pKVO-62" value="" style="outlineConnect=0;dashed=0;verticalLabelPosition=bottom;verticalAlign=top;align=center;html=1;shape=mxgraph.aws3.ec2;fillColor=#F58534;gradientColor=none;fillStyle=solid;fontFamily=Helvetica;fontSize=15;" vertex="1" parent="1TEvrV3OOSXdkgy0pKVO-1">
          <mxGeometry x="-159.12" y="-41" width="39.12" height="51" as="geometry" />
        </mxCell>
        <mxCell id="1TEvrV3OOSXdkgy0pKVO-63" value="EC2" style="text;html=1;strokeColor=none;fillColor=none;align=center;verticalAlign=middle;whiteSpace=wrap;rounded=0;fillStyle=solid;fontFamily=Helvetica;fontSize=17;fontStyle=1" vertex="1" parent="1TEvrV3OOSXdkgy0pKVO-1">
          <mxGeometry x="-286" y="-30.5" width="220" height="30" as="geometry" />
        </mxCell>
        <mxCell id="1TEvrV3OOSXdkgy0pKVO-64" value="" style="outlineConnect=0;dashed=0;verticalLabelPosition=bottom;verticalAlign=top;align=center;html=1;shape=mxgraph.aws3.ec2;fillColor=#F58534;gradientColor=none;fillStyle=solid;fontFamily=Helvetica;fontSize=15;" vertex="1" parent="1TEvrV3OOSXdkgy0pKVO-1">
          <mxGeometry x="10.879999999999995" y="-41" width="39.12" height="51" as="geometry" />
        </mxCell>
        <mxCell id="1TEvrV3OOSXdkgy0pKVO-65" value="" style="sketch=0;html=1;dashed=0;whitespace=wrap;fillColor=#2875E2;strokeColor=#ffffff;points=[[0.005,0.63,0],[0.1,0.2,0],[0.9,0.2,0],[0.5,0,0],[0.995,0.63,0],[0.72,0.99,0],[0.5,1,0],[0.28,0.99,0]];shape=mxgraph.kubernetes.icon;prIcon=pod;fillStyle=solid;fontFamily=Helvetica;fontSize=17;" vertex="1" parent="1TEvrV3OOSXdkgy0pKVO-1">
          <mxGeometry x="-125" y="98.5" width="75" height="52.5" as="geometry" />
        </mxCell>
        <mxCell id="1TEvrV3OOSXdkgy0pKVO-66" value="" style="sketch=0;html=1;dashed=0;whitespace=wrap;fillColor=#2875E2;strokeColor=#ffffff;points=[[0.005,0.63,0],[0.1,0.2,0],[0.9,0.2,0],[0.5,0,0],[0.995,0.63,0],[0.72,0.99,0],[0.5,1,0],[0.28,0.99,0]];shape=mxgraph.kubernetes.icon;prIcon=pod;fillStyle=solid;fontFamily=Helvetica;fontSize=17;" vertex="1" parent="1TEvrV3OOSXdkgy0pKVO-1">
          <mxGeometry x="45" y="29.5" width="75" height="52.5" as="geometry" />
        </mxCell>
        <mxCell id="1TEvrV3OOSXdkgy0pKVO-67" value="" style="sketch=0;html=1;dashed=0;whitespace=wrap;fillColor=#2875E2;strokeColor=#ffffff;points=[[0.005,0.63,0],[0.1,0.2,0],[0.9,0.2,0],[0.5,0,0],[0.995,0.63,0],[0.72,0.99,0],[0.5,1,0],[0.28,0.99,0]];shape=mxgraph.kubernetes.icon;prIcon=pod;fillStyle=solid;fontFamily=Helvetica;fontSize=17;" vertex="1" parent="1TEvrV3OOSXdkgy0pKVO-1">
          <mxGeometry x="45" y="109.75" width="75" height="52.5" as="geometry" />
        </mxCell>
        <mxCell id="1TEvrV3OOSXdkgy0pKVO-68" value="Pod" style="text;html=1;strokeColor=none;fillColor=none;align=center;verticalAlign=middle;whiteSpace=wrap;rounded=0;fillStyle=solid;fontFamily=Helvetica;fontSize=17;fontStyle=1" vertex="1" parent="1TEvrV3OOSXdkgy0pKVO-1">
          <mxGeometry x="-29" y="68" width="220" height="30" as="geometry" />
        </mxCell>
        <mxCell id="1TEvrV3OOSXdkgy0pKVO-69" value="Pod" style="text;html=1;strokeColor=none;fillColor=none;align=center;verticalAlign=middle;whiteSpace=wrap;rounded=0;fillStyle=solid;fontFamily=Helvetica;fontSize=17;fontStyle=1" vertex="1" parent="1TEvrV3OOSXdkgy0pKVO-1">
          <mxGeometry x="-30" y="154" width="220" height="30" as="geometry" />
        </mxCell>
        <mxCell id="1TEvrV3OOSXdkgy0pKVO-70" value="EC2" style="text;html=1;strokeColor=none;fillColor=none;align=center;verticalAlign=middle;whiteSpace=wrap;rounded=0;fillStyle=solid;fontFamily=Helvetica;fontSize=17;fontStyle=1" vertex="1" parent="1TEvrV3OOSXdkgy0pKVO-1">
          <mxGeometry x="-110" y="-33.5" width="218" height="33.5" as="geometry" />
        </mxCell>
        <mxCell id="1TEvrV3OOSXdkgy0pKVO-71" value="" style="sketch=0;html=1;dashed=0;whitespace=wrap;fillColor=#2875E2;strokeColor=#ffffff;points=[[0.005,0.63,0],[0.1,0.2,0],[0.9,0.2,0],[0.5,0,0],[0.995,0.63,0],[0.72,0.99,0],[0.5,1,0],[0.28,0.99,0]];shape=mxgraph.kubernetes.icon;prIcon=node;fillStyle=solid;fontFamily=Helvetica;fontSize=17;" vertex="1" parent="1TEvrV3OOSXdkgy0pKVO-1">
          <mxGeometry x="-54" y="154" width="60" height="50.5" as="geometry" />
        </mxCell>
        <mxCell id="1TEvrV3OOSXdkgy0pKVO-72" value="" style="sketch=0;html=1;dashed=0;whitespace=wrap;fillColor=#2875E2;strokeColor=#ffffff;points=[[0.005,0.63,0],[0.1,0.2,0],[0.9,0.2,0],[0.5,0,0],[0.995,0.63,0],[0.72,0.99,0],[0.5,1,0],[0.28,0.99,0]];shape=mxgraph.kubernetes.icon;prIcon=node;fillStyle=solid;fontFamily=Helvetica;fontSize=17;" vertex="1" parent="1TEvrV3OOSXdkgy0pKVO-1">
          <mxGeometry x="120" y="151" width="60" height="50.5" as="geometry" />
        </mxCell>
        <mxCell id="1TEvrV3OOSXdkgy0pKVO-73" value="Elasticsearch" style="text;html=1;strokeColor=none;fillColor=none;align=center;verticalAlign=middle;whiteSpace=wrap;rounded=0;fillStyle=solid;fontFamily=Helvetica;fontSize=17;fontStyle=1" vertex="1" parent="1TEvrV3OOSXdkgy0pKVO-1">
          <mxGeometry x="-107" y="109.75" width="220" height="30" as="geometry" />
        </mxCell>
      </root>
    </mxGraphModel>
  </diagram>
  <diagram id="JpaurDzWbTHkkEcHJAz4" name="Page-4">
    <mxGraphModel dx="782" dy="436" grid="1" gridSize="10" guides="1" tooltips="1" connect="1" arrows="1" fold="1" page="1" pageScale="1" pageWidth="850" pageHeight="1100" math="0" shadow="0">
      <root>
        <mxCell id="0" />
        <mxCell id="1" parent="0" />
      </root>
    </mxGraphModel>
  </diagram>
</mxfile>
